<?xml version="1.0" encoding="utf-8"?>
<!-- Generator: Adobe Illustrator 24.1.0, SVG Export Plug-In . SVG Version: 6.00 Build 0)  -->
<svg version="1.1" id="Layer_1" xmlns="http://www.w3.org/2000/svg" xmlns:xlink="http://www.w3.org/1999/xlink" x="0px" y="0px"
	 viewBox="0 0 24 24" style="enable-background:new 0 0 24 24;" xml:space="preserve">
<style type="text/css">
	.st0{fill:#404040;}
	.st1{fill:none;stroke:#404040;stroke-width:0.5;stroke-miterlimit:10;}
</style>
<g>
	<path class="st0" d="M7.61,11.2c-0.18,0-0.33,0.01-0.48,0c-0.63-0.05-1.1-0.54-1.11-1.17c-0.01-0.67-0.01-1.34,0-2.01
		c0.01-0.66,0.5-1.16,1.16-1.19c0.13-0.01,0.26,0,0.41,0c0.05-1.47,0.62-2.67,1.79-3.56c0.95-0.72,2.02-0.91,3.18-0.82
		c1.56,0.12,3.86,1.74,3.83,4.39c0.15,0,0.31-0.01,0.46,0c0.6,0.04,1.09,0.52,1.1,1.12c0.02,0.7,0.01,1.4,0,2.1
		c-0.01,0.6-0.48,1.09-1.09,1.14c-0.15,0.01-0.31,0-0.5,0c0,0.55-0.01,1.06,0.01,1.58c0,0.06,0.1,0.13,0.16,0.16
		c0.51,0.27,0.99,0.58,1.36,1.04c0.33,0.41,0.47,0.87,0.47,1.4c-0.01,1.61,0,3.22,0.01,4.83c0,0.63-0.24,1.15-0.67,1.58
		c-0.57,0.57-1.26,0.94-2.02,1.17c-2.62,0.83-5.23,0.82-7.82-0.16c-0.61-0.23-1.16-0.56-1.62-1.04c-0.46-0.47-0.66-1.02-0.65-1.69
		c0.02-1.6,0-3.21,0-4.81c0-0.47,0.15-0.88,0.43-1.25c0.37-0.48,0.85-0.81,1.39-1.08c0.14-0.07,0.19-0.15,0.18-0.3
		C7.61,12.18,7.61,11.71,7.61,11.2z M6.42,18.77c1.68-1.26,3.59-1.58,5.57-1.58c1.99,0,3.9,0.32,5.56,1.56
		c0.01-0.05,0.02-0.08,0.02-0.11c0-1.11-0.01-2.23,0-3.34c0.01-0.54-0.24-0.94-0.66-1.21c-0.43-0.28-0.88-0.54-1.36-0.7
		c-2.31-0.79-4.64-0.79-6.97-0.06c-0.63,0.2-1.24,0.47-1.72,0.94c-0.26,0.26-0.44,0.55-0.43,0.94c0.01,0.61-0.01,1.23-0.01,1.84
		C6.42,17.62,6.42,18.18,6.42,18.77z M15.59,12.53c0-0.1,0-0.18,0-0.26c0-1.77,0-3.53,0.01-5.3c0-0.21-0.07-0.3-0.26-0.36
		c-2.23-0.68-4.45-0.68-6.68,0C8.47,6.67,8.4,6.75,8.4,6.96c0.01,1.77,0.01,3.55,0.01,5.32c0,0.08,0.01,0.16,0.01,0.25
		C10.82,11.83,13.19,11.83,15.59,12.53z M12.17,17.98c-1.39,0-2.59,0.15-3.74,0.58c-0.6,0.22-1.17,0.5-1.62,0.98
		c-0.21,0.22-0.36,0.46-0.38,0.78c-0.02,0.5,0.26,0.84,0.62,1.09c0.45,0.3,0.92,0.6,1.43,0.77c2.24,0.78,4.5,0.77,6.76,0.1
		c0.7-0.21,1.37-0.51,1.9-1.05c0.57-0.57,0.59-1.19-0.01-1.73c-0.36-0.32-0.78-0.59-1.22-0.79C14.68,18.16,13.35,17.99,12.17,17.98z
		 M15.43,5.81c-0.26-1.45-1.8-2.56-3.5-2.56c-1.59,0-3.12,1.16-3.36,2.55C10.85,5.14,13.13,5.14,15.43,5.81z M7.6,7.63
		c-0.14,0-0.27-0.01-0.39,0C6.98,7.64,6.83,7.78,6.82,8.01c-0.01,0.67-0.01,1.34,0,2c0,0.23,0.15,0.37,0.38,0.39
		c0.13,0.01,0.26,0,0.4,0C7.6,9.47,7.6,8.57,7.6,7.63z M16.4,7.63c0,0.93,0,1.84,0,2.78c0.13,0,0.26,0.01,0.38,0
		c0.24-0.01,0.4-0.15,0.4-0.4c0.01-0.66,0.01-1.32,0-1.98c0-0.24-0.16-0.38-0.4-0.4C16.66,7.62,16.53,7.63,16.4,7.63z"/>
	<path class="st0" d="M11.99,19.97c-0.63,0-1.26,0-1.89,0c-0.31,0-0.48-0.14-0.48-0.38c-0.01-0.26,0.17-0.41,0.48-0.41
		c1.27,0,2.54,0,3.8,0c0.31,0,0.49,0.16,0.48,0.41c-0.01,0.25-0.17,0.38-0.48,0.38C13.26,19.97,12.62,19.97,11.99,19.97z"/>
	<path class="st0" d="M11.98,21.56c-0.62,0-1.24,0-1.87,0c-0.32,0-0.49-0.14-0.49-0.39c0-0.25,0.18-0.4,0.5-0.4
		c1.26,0,2.52,0,3.78,0c0.38,0,0.59,0.26,0.46,0.56c-0.08,0.18-0.23,0.24-0.42,0.24C13.28,21.56,12.63,21.56,11.98,21.56z"/>
</g>
<path class="st1" d="M12,1L12,1c0.55,0,1,0.45,1,1v1h-2V2C11,1.45,11.45,1,12,1z"/>
</svg>
