<?xml version="1.0" encoding="UTF-8"?><svg id="Layer_1" xmlns="http://www.w3.org/2000/svg" viewBox="0 0 88 96"><defs><style>.cls-1{fill:#fff;}.cls-2{stroke:#000;stroke-miterlimit:10;stroke-width:.25px;}</style></defs><path class="cls-1" d="M57.92,18.61V90.62h-12.12c.06-.02,.12-.05,.18-.07,1.47-.31,2.63-1.09,3.29-2.46,.34-.7,.58-1.46,.77-2.21,.41-1.65,.44-3.35,.4-5.05-.06-2.61-.18-5.22-.16-7.83,.02-1.9,.14-3.81,.37-5.7,.29-2.42,.72-4.82,1.13-7.22,.43-2.48,.91-4.94,1.37-7.41,.47-2.53,.96-5.05,1.41-7.58,.52-2.92,.9-5.87,1.06-8.84,.18-3.32,.14-6.63-.15-9.95-.1-1.17-.71-2.01-1.84-2.35-1.05-.32-2.11-.66-3.19-.81-1.87-.26-3.76-.44-5.65-.54-3.6-.2-7.18,.02-10.73,.71-1.04,.2-2.04,.52-2.94,1.09-.56,.35-.84,.86-.87,1.52-.01,.39-.04,.77-.07,1.16-.09,1.38-.21,2.76-.25,4.14-.07,2.43,.03,4.85,.26,7.27,.25,2.73,.64,5.43,1.14,8.12,.67,3.58,1.39,7.15,2.05,10.73,.48,2.61,.95,5.23,1.35,7.85,.43,2.79,.59,5.6,.61,8.41,0,1.4-.07,2.8-.08,4.21-.01,1.84,.01,3.68,.01,5.51,0,1.27,.18,2.5,.6,3.7,.53,1.49,1.41,2.68,2.95,3.26,.34,.13,.7,.21,1.05,.31h-12.24V7.35h30.28v10.34c-.04-.29-.08-.57-.11-.86-.26-2.21-.86-4.32-1.86-6.3-.34-.67-.73-1.32-1.26-1.89-.21,.11-.42,.22-.63,.34,.08,.24,.17,.45,.22,.66,.12,.48,.31,.97,.33,1.46,.05,1.2,.02,2.4,.01,3.6,0,.59-.12,.72-.71,.72-7.39,0-14.79,0-22.18,0-.58,0-.71-.14-.72-.72,0-1.15-.01-2.3,0-3.45,0-.31,.07-.63,.14-.94,.11-.47,.25-.92,.38-1.4-.19-.07-.35-.15-.51-.19-.07-.02-.2,0-.24,.06-.2,.25-.42,.49-.56,.77-.53,1.13-1.08,2.25-1.52,3.41-.66,1.75-1.06,3.58-1,5.47,.03,.87,.38,1.57,1.13,2.04,.53,.32,1.11,.51,1.73,.53,1.49,.03,2.98,.03,4.46,.03,3.67,0,7.34,0,11.02,0,2.97,0,5.93,0,8.9,0,1.14,0,2.09-.4,2.64-1.46,.15-.29,.22-.63,.32-.95Zm-4.07-11.19H31.82c-.01,.09-.03,.17-.03,.24,0,1.98,0,3.97,0,5.95,0,.44,.1,.51,.58,.51,6.95,0,13.9,0,20.84,0,.52,0,.61-.08,.61-.6,0-1.71,0-3.42,.01-5.14,0-.32,0-.63,0-.96Zm-.46,13.71h-21.14v2.26c7.06-1.61,14.1-1.6,21.14,.03v-2.3Z"/><path class="cls-2" d="M39.88,90.62c-.35-.1-.71-.18-1.05-.31-1.54-.57-2.41-1.76-2.95-3.26-.43-1.2-.6-2.43-.6-3.7,0-1.84-.02-3.68-.01-5.51,0-1.4,.09-2.8,.08-4.21-.02-2.82-.18-5.63-.61-8.41-.4-2.63-.87-5.24-1.35-7.85-.66-3.58-1.38-7.15-2.05-10.73-.5-2.69-.89-5.4-1.14-8.12-.23-2.42-.33-4.85-.26-7.27,.04-1.38,.17-2.76,.25-4.14,.02-.39,.06-.77,.07-1.16,.02-.66,.31-1.17,.87-1.52,.9-.57,1.91-.89,2.94-1.09,3.55-.69,7.13-.91,10.73-.71,1.89,.1,3.78,.28,5.65,.54,1.08,.15,2.14,.49,3.19,.81,1.14,.35,1.75,1.18,1.84,2.35,.28,3.31,.32,6.63,.15,9.95-.16,2.97-.54,5.91-1.06,8.84-.45,2.53-.94,5.05-1.41,7.58-.46,2.47-.94,4.93-1.37,7.41-.41,2.4-.84,4.8-1.13,7.22-.23,1.89-.36,3.8-.37,5.7-.02,2.61,.1,5.22,.16,7.83,.04,1.7,.01,3.39-.4,5.05-.19,.75-.43,1.51-.77,2.21-.66,1.37-1.81,2.15-3.29,2.46-.06,.01-.12,.04-.18,.07h-5.92Zm-4.06-15.01h-.05c0,1.77-.02,3.54,0,5.31,.01,1.1,.18,2.18,.53,3.22,.57,1.72,1.62,2.96,3.47,3.34,1.98,.4,3.97,.4,5.96,.03,1.55-.29,2.61-1.15,3.26-2.58,.65-1.44,.89-2.97,.9-4.52,.01-1.68-.09-3.36-.13-5.05-.07-2.85,0-5.69,.32-8.52,.19-1.72,.38-3.44,.68-5.14,.6-3.33,1.27-6.64,1.92-9.96,.6-3.12,1.29-6.23,1.68-9.38,.27-2.17,.45-4.35,.49-6.54,.05-2.46-.06-4.91-.34-7.36-.06-.52-.31-.93-.79-1.13-.7-.29-1.4-.61-2.13-.81-1.97-.56-4.01-.71-6.04-.81-3.07-.15-6.14-.11-9.2,.34-1.48,.22-2.9,.62-4.28,1.19-.58,.24-.89,.69-.95,1.31-.02,.19-.02,.39-.04,.58-.22,2.23-.37,4.47-.32,6.72,.04,2.3,.21,4.58,.57,6.85,.37,2.3,.81,4.59,1.23,6.87,.52,2.83,1.08,5.66,1.59,8.49,.39,2.14,.74,4.29,1.09,6.43,.3,1.87,.55,3.75,.59,5.65,.04,1.83,0,3.65,0,5.48Z"/><path class="cls-2" d="M57.92,17.61c-.1,.32-.17,.66-.32,.95-.56,1.06-1.51,1.45-2.64,1.46-2.97,.01-5.93,0-8.9,0-3.67,0-7.34,0-11.02,0-1.49,0-2.98,0-4.46-.03-.62-.01-1.2-.2-1.73-.53-.76-.46-1.11-1.17-1.13-2.04-.05-1.89,.34-3.72,1-5.47,.44-1.16,.99-2.28,1.52-3.41,.13-.28,.36-.53,.56-.77,.04-.05,.17-.08,.24-.06,.17,.04,.32,.12,.51,.19-.13,.47-.27,.93-.38,1.4-.07,.31-.13,.62-.14,.94-.02,1.15,0,2.3,0,3.45,0,.58,.13,.72,.72,.72,7.39,0,14.79,0,22.18,0,.59,0,.71-.12,.71-.72,0-1.2,.03-2.4-.01-3.6-.02-.49-.2-.97-.33-1.46-.05-.21-.14-.42-.22-.66,.21-.11,.42-.22,.63-.34,.53,.57,.92,1.21,1.26,1.89,1,1.99,1.6,4.1,1.86,6.3,.03,.29,.07,.57,.11,.86v.93Zm-2.64-8.08s-.03,.02-.04,.03c0,1.33,0,2.66,0,4,0,1.14-.33,1.47-1.47,1.47-5.8,0-11.6,0-17.4,0-1.55,0-3.09,0-4.64,0-.96,0-1.32-.36-1.32-1.31,0-1.27,0-2.54,0-3.8,0-.08,0-.16,0-.24-.11,.1-.18,.21-.23,.32-.36,.89-.75,1.76-1.06,2.66-.54,1.57-.87,3.19-.8,4.86,.03,.69,.36,1.19,.96,1.51,.51,.27,1.07,.39,1.65,.39,1.34,0,2.69,0,4.03,0,6.61,0,13.22,0,19.83,0,.11,0,.21,0,.32,0,1.12-.05,1.94-.68,2.13-1.7,.07-.4,.05-.83,.02-1.24-.16-1.85-.59-3.64-1.27-5.37-.21-.53-.48-1.05-.72-1.57Z"/><path d="M53.23,6.91c0,.3,0,.6,0,.89,0,1.59,0,3.17-.01,4.76,0,.48-.08,.56-.57,.56-6.44,0-12.88,0-19.32,0-.44,0-.54-.07-.54-.47,0-1.84,0-3.68,0-5.51,0-.07,.02-.14,.03-.23h20.41Zm-11.32,.43v5.06h.61V7.36c-.07,0-.14-.02-.2-.02-.13,0-.27,0-.42,0Zm-4.13,.02c-.08,0-.12-.02-.16-.02-.52,0-.43-.04-.43,.43,0,1.45,0,2.9,0,4.35v.31h.59V7.36Zm14.2,0h-.6v5.05h.6V7.37Zm-8.49,.01v5.03h.6V7.38h-.6Zm-4.7-.02v5.05h.56V7.36h-.56Zm11.03,0v5.06h.56V7.36h-.56Zm-4.19,5.06V7.36h-.55v5.05h.55Zm-11.57-5.06v5.03h.56V7.36h-.56Zm6.87,5.04V7.37h-.56v5.03h.56Zm-4.75,.02V7.37h-.55v5.05h.55Zm11.03-.02V7.37h-.57v5.04h.57Zm1.03-5.04v5.05h.58V7.37h-.58Z"/><path d="M53.36,20.47v2.3c-7.05-1.63-14.09-1.65-21.14-.03v-2.26h21.14Z"/><path d="M44.99,53.92c0,3.24,0,6.49,0,9.73,0,1.65-1.58,2.7-3.09,2.04-.82-.37-1.23-1.05-1.27-1.95-.02-.59,0-1.19,0-1.78,0-5.93,0-11.85,0-17.78,0-.93,.42-1.65,1.27-2.05,1.06-.5,2.69-.06,3.05,1.59,.03,.14,.04,.29,.04,.43,0,3.25,0,6.51,0,9.76Zm-.97-7.4c0-.66,0-1.32,0-1.97,0-.75-.49-1.29-1.15-1.3-.73-.01-1.26,.51-1.27,1.25,0,1.02,0,2.04,0,3.06,0,.38,0,.77,.04,1.14,.08,.62,.53,1.03,1.09,1.05,.75,.02,1.29-.5,1.3-1.25,0-.66,0-1.32,0-1.97Zm.03,16.93c0-.72-.56-1.28-1.26-1.28-.67,0-1.23,.57-1.23,1.26,0,.7,.55,1.25,1.23,1.25,.7,0,1.26-.55,1.26-1.23Zm-1.23-7.64c-.71,0-1.25,.52-1.26,1.22,0,.7,.54,1.26,1.22,1.26,.7,0,1.26-.55,1.27-1.24,0-.7-.53-1.24-1.23-1.24Z"/></svg>