<?xml version="1.0" encoding="UTF-8"?>
<svg id="Layer_1" data-name="Layer 1" xmlns="http://www.w3.org/2000/svg" viewBox="0 0 88 96">
  <defs>
    <style>
      .cls-1 {
        stroke: #231f20;
        stroke-miterlimit: 10;
        stroke-width: 2px;
      }
    </style>
  </defs>
  <path d="M59.7,81.6c.9,0,1.9,0,2.8,0,.5,0,1,0,1.5,0,.8,0,1.5,.8,1.4,1.6,0,.9-.7,1.5-1.6,1.5-3.3,0-6.6,0-9.9,0-11.4,0-22.8,0-34.3,0-.7,0-1.2-.2-1.6-.8-.6-.9,0-2.3,1.2-2.3,1,0,1.9,0,2.9,0,.5,0,1,0,1.5,0-.3-.3-.6-.5-.9-.7-3.4-2.6-6.2-5.8-8.4-9.5-1.7-3-2.9-6.3-3.5-9.7-.5-2.8-.7-5.6-.4-8.4,.4-4.4,1.6-8.5,3.8-12.4,1.2-2.1,2.6-4.1,4.2-5.9,.4-.4,.9-.6,1.4-.6,.8,0,1.6,0,2.4,0,.2,0,.3,0,.4-.2,1.2-1.9,2.5-3.9,3.7-5.8,.3-.5,.7-.7,1.3-.7,.7,0,1.3,0,2,0,8.6,0,17.1,0,25.7,0,.7,0,1.2,.3,1.6,.9,1.2,1.9,2.4,3.8,3.6,5.7,.1,.2,.2,.2,.4,.2,.8,0,1.6,0,2.4,0,.6,0,1,.2,1.4,.6,2.5,2.7,4.5,5.8,5.9,9.3,1.1,2.7,1.8,5.5,2.1,8.5,.6,5.9-.3,11.5-2.9,16.9-2.3,4.8-5.6,8.7-9.9,11.8,0,0-.2,.1-.3,.2,0,0,0,0,0,0Zm-18-44.1h-8.1c-4.3,0-8.5,0-12.8,0-.1,0-.3,0-.4,.1-2.3,2.7-4.1,5.7-5.3,9-1.5,4.3-2,8.6-1.3,13.1,.7,5.1,2.6,9.6,5.8,13.7,2.8,3.5,6.2,6.2,10.3,8.1,.1,0,.2,0,.3,0,4,0,8.1,0,12.1,0,3.6,0,7.2,0,10.7,0,.1,0,.2,0,.3,0,2.8-1.3,5.3-3,7.5-5.1,3.5-3.3,6-7.3,7.5-11.9,.8-2.5,1.3-5.1,1.3-7.7,0-1.2,0-2.5-.2-3.7-.2-2.3-.7-4.5-1.5-6.7-1.2-3.2-2.9-6.1-5.1-8.7-.2-.2-.3-.3-.6-.3-6.9,0-13.9,0-20.8,0Zm-15.3-3.2h30.6c0,0,0-.1-.1-.2-.7-1.1-1.4-2.1-2-3.2-.1-.2-.2-.2-.4-.2-5.2,0-10.4,0-15.5,0-3.3,0-6.6,0-10,0-.2,0-.3,0-.4,.2-.2,.3-.3,.5-.5,.8-.5,.9-1.1,1.7-1.7,2.6Z"/>
  <path d="M51.3,26c-.6,0-1.1-.3-1.3-.9-.3-.6-.2-1.2,.3-1.7,.2-.2,.3-.5,.2-.8-.2-.5-.4-1-.6-1.5-.3-.8-.6-1.5-.6-2.4,0-1,.4-1.8,1-2.4,.2-.2,.3-.5,.2-.8-.2-.6-.5-1.1-.7-1.7-.3-.7-.5-1.5-.5-2.3,0-1,.4-1.8,1.1-2.5,.6-.6,1.6-.6,2.2,0,.6,.6,.7,1.6,.1,2.2-.3,.3-.3,.6-.2,.9,.2,.5,.4,1,.6,1.5,.4,.8,.6,1.7,.5,2.6,0,.8-.4,1.5-1,2.1-.3,.3-.4,.6-.2,1,.2,.5,.4,1,.6,1.4,.4,.9,.7,1.8,.5,2.8-.1,.9-.5,1.6-1.2,2.2-.3,.3-.6,.4-1.1,.4Z"/>
  <path d="M30.7,24.5c0-.5,.1-.9,.4-1.2,.2-.2,.3-.5,.2-.8-.2-.5-.4-.9-.6-1.4-.3-.6-.5-1.3-.6-2-.1-1.2,.2-2.1,1-3,.2-.2,.3-.5,.2-.7-.2-.5-.4-.9-.6-1.4-.4-.9-.8-1.9-.6-2.9,.1-.9,.5-1.7,1.2-2.3,.6-.5,1.5-.5,2.1,.1,.6,.6,.6,1.5,0,2.1-.3,.3-.3,.6-.2,1,.2,.6,.5,1.1,.7,1.7,.4,.9,.6,1.7,.4,2.7-.1,.7-.4,1.3-.9,1.8-.3,.3-.4,.7-.2,1.1,.2,.6,.5,1.1,.7,1.7,.4,.9,.5,1.7,.4,2.7-.2,.8-.6,1.5-1.2,2-.5,.4-1.1,.4-1.6,.2-.6-.3-.9-.8-.9-1.3Z"/>
  <path d="M44.1,22.8c0,1.1-.4,2.1-1.2,2.8-.6,.6-1.6,.5-2.2-.1-.6-.6-.6-1.5,0-2.1,.2-.2,.3-.5,.2-.8-.2-.5-.4-.9-.6-1.4-.4-.9-.7-1.7-.6-2.7,0-.9,.4-1.6,1-2.2,.3-.3,.4-.7,.2-1.1-.3-.6-.5-1.2-.8-1.7-.3-.8-.5-1.7-.3-2.6,.2-.7,.5-1.4,1.1-1.9,.5-.5,1.5-.7,2.3,.1,.5,.5,.5,1.5,0,2.1-.3,.3-.3,.6-.1,1,.3,.7,.6,1.4,.9,2.1,.4,1,.4,2.1,0,3.1-.2,.3-.4,.7-.7,1-.2,.3-.3,.5-.2,.8,.2,.5,.4,.9,.6,1.4,.3,.7,.6,1.4,.6,2.2Z"/>
  <path class="cls-1" d="M41.9,62.5c-2.8,0-5.1-2.2-5.1-5,0-3,2.4-5.3,5.2-5.3,2.8,0,5.1,2.3,5.1,5.2,0,2.8-2.3,5.1-5.2,5.1Zm3.9-5.1c0-2.1-1.8-3.9-3.9-3.9-2.1,0-3.9,1.7-3.9,3.9,0,2.2,1.7,3.9,3.9,3.9,2.1,0,3.9-1.8,3.9-3.9Z"/>
</svg>