<?xml version="1.0" encoding="UTF-8"?><svg id="Layer_1" xmlns="http://www.w3.org/2000/svg" viewBox="0 0 88 96"><defs><style>.cls-1{fill:#231f20;}.cls-1,.cls-2,.cls-3,.cls-4{stroke:#231f20;stroke-miterlimit:10;}.cls-1,.cls-4{stroke-width:.75px;}.cls-2{stroke-width:1.1px;}.cls-2,.cls-3,.cls-4{fill:none;}.cls-3{stroke-width:1.25px;}</style></defs><g id="toothbrush"><path class="cls-3" d="M22.73,76.54l3.77,1.69,2.43,1.1c1.25,.65,2.78,.17,3.44-1.07,.05-.1,.1-.21,.14-.32l4.89-11.17,5.77-13.17c.59-1.1,.24-2.47-.8-3.15-.18-.13-.38-.23-.58-.31l-5.91-2.63-.31-.11h0c.72-1.62,1.35-3.26,2.21-4.71,1.47-3.12,5.13-4.54,8.32-3.23,1.35,.4,2.56,1.15,3.53,2.17,1.91,1.9,2.4,4.8,1.23,7.22l-17.68,39.65c-1.48,3.31-5.36,4.82-8.69,3.38-1.14-.38-2.18-1-3.05-1.81-1.93-1.83-2.53-4.66-1.49-7.11,.81-2.16,1.84-4.18,2.79-6.39Z"/><path class="cls-2" d="M30.29,59c2.11,.91,4.55-.06,5.47-2.16s-.05-4.54-2.16-5.45l.99-2.19,.25,.09,5.51,2.42c.75,.26,1.15,1.08,.89,1.83-.03,.07-.06,.14-.09,.21l-9.92,22.5c-.14,.56-.62,.97-1.19,1.01-.23,.06-.48,.04-.69-.06-1.99-.85-3.99-1.72-5.91-2.59l6.85-15.61Z"/><path class="cls-3" d="M50.4,39.24c-1.78-1.61-3.95-2.62-6.34-2.86l1.58-3.15c2.58-5.04,5.21-10.06,7.68-15.18,1.71-3.51,3.21-7.09,4.78-10.67,.31-.77,1.05-1.29,1.88-1.31,.81-.11,1.6,.29,2,.99,.38,.59,.44,1.34,.15,1.98l-.91,2.01c-1.21,2.4-2.61,6.5-4.46,11.2l-6.24,16.7-.12,.3Z"/><path class="cls-4" d="M51.77,17.17l-4.64-2.04-.49-.27c-.52-.26-.73-.68-.44-1.14,.15-.41,.6-.62,1.01-.47,.03,.01,.06,.02,.09,.04,1.19,.5,2.37,1.04,3.53,1.55l.48,.24,.43-.97-3.81-1.68s.16,.07-.24-.08c-.42-.16-.57-.49-.4-.92,0-.02,.02-.05,.03-.07,.2-.41,.68-.6,1.1-.43l3.67,1.61c.14,.08,.28,.17,.41,.26l.48-1.03-4.02-1.74-.42-.18c-.33-.2-.48-.6-.38-.97,.19-.32,.58-.47,.94-.36l.42,.18,3.48,1.53,.4,.15,.41-.93-.34-.18-3.67-1.61c-.42-.16-.64-.64-.47-1.07,0-.02,.02-.05,.03-.07,.14-.41,.58-.64,1-.5,.05,.02,.1,.04,.14,.06,1.32,.56,2.67,1.16,4.04,1.78l.37-1.03-2.27-1c-.59-.23-1.15-.48-1.72-.76-.39-.15-.58-.59-.43-.97,0-.02,.02-.04,.03-.06,.18-.37,.62-.54,1-.39l5.38,2.26-5.13,11.26Z"/><path class="cls-1" d="M30.65,57.76l2.28-5.27s2.52,1.72,1.55,3.99c0,0-.73,1.8-3.83,1.28Z"/></g></svg>