<?xml version="1.0" encoding="utf-8"?>
<!-- Generator: Adobe Illustrator 24.1.0, SVG Export Plug-In . SVG Version: 6.00 Build 0)  -->
<svg version="1.1" id="Layer_1" xmlns="http://www.w3.org/2000/svg" xmlns:xlink="http://www.w3.org/1999/xlink" x="0px" y="0px"
	 viewBox="0 0 24 24" style="enable-background:new 0 0 24 24;" xml:space="preserve">
<style type="text/css">
	.st0{fill:none;stroke:#020000;stroke-width:0.4;stroke-miterlimit:10;}
	.st1{fill:none;stroke:#000000;stroke-width:0.4;stroke-miterlimit:10;}
	.st2{fill:#404040;}
</style>
<g id="XMLID_2588_">
	<g id="XMLID_2606_">
		<g id="XMLID_2486_">
			<g id="XMLID_2677_">
				<rect x="5.2" y="2.3" width="0.9" height="0.9"/>
			</g>
		</g>
		<g id="XMLID_2482_">
			<g id="XMLID_2676_">
				<rect x="7" y="2.3" width="0.9" height="0.9"/>
			</g>
		</g>
	</g>
	<g id="XMLID_2477_">
		<g id="XMLID_2654_">
			<path class="st0" d="M8.1,12.6H5c-1.1,0-2-0.9-2-2.1V6.3h7.1v4.2C10.1,11.7,9.2,12.6,8.1,12.6z"/>
		</g>
	</g>
	<g id="XMLID_2583_">
		<g id="XMLID_2653_">
			<path class="st1" d="M9.7,23c-2.2,0-3.9-1.8-3.9-3.9v-6.4h1.5v6.4c0,1.3,1.1,2.4,2.4,2.4s2.4-1.1,2.4-2.4V10
				c0-2.2,1.8-3.9,3.9-3.9s4,1.8,4,3.9v1.8h-1.5V10c0-1.3-1.1-2.4-2.4-2.4s-2.4,1.1-2.4,2.4v9.1C13.7,21.2,11.9,23,9.7,23z"/>
		</g>
	</g>
	<g id="XMLID_2618_">
		<g id="XMLID_2582_">
			<g id="XMLID_2650_">
				<path class="st1" d="M21,16.3h-3.5v-3.4c0-0.6,0.5-1,1-1H20c0.6,0,1,0.5,1,1V16.3z"/>
			</g>
		</g>
		<g id="XMLID_2585_">
			<g id="XMLID_2647_">
				<path d="M20.5,16.2v1.7c0,0.5-0.4,0.9-0.9,0.9h-0.7c-0.5,0-0.9-0.4-0.9-0.9v-1.7h0.4c0,0.1,0,0.1,0,0.2V18
					c0,0.3,0.2,0.5,0.5,0.5h0.8c0.3,0,0.5-0.2,0.5-0.5v-1.6c0-0.1,0-0.1,0-0.2C20.2,16.2,20.5,16.2,20.5,16.2z"/>
			</g>
		</g>
	</g>
	<polygon points="9.2,1 9.2,5.9 9,5.9 9,1.3 4.1,1.3 4.1,5.9 3.9,5.9 3.9,1 	"/>
</g>
<rect x="18.8" y="17" class="st2" width="0.1" height="0.7"/>
<rect x="19.6" y="17" class="st2" width="0.1" height="0.7"/>
</svg>
