<?xml version="1.0" encoding="UTF-8"?><svg id="Layer_1" xmlns="http://www.w3.org/2000/svg" viewBox="0 0 88 96"><defs><style>.cls-1{stroke:#010101;stroke-miterlimit:10;}</style></defs><path class="cls-1" d="M40.26,83.28c-1.22-.26-2.45-.48-3.65-.8-5.22-1.37-9.43-4.32-12.9-8.38-4.69-5.48-7.25-11.88-8.23-18.97-.15-1.09-.28-2.19-.42-3.28,0-1.69,0-3.38,0-5.07,.19-1.4,.28-2.83,.6-4.2,.54-2.37,1.22-4.7,1.85-7.04,.07-.24,.21-.47,.36-.8,.59,.81,1.1,1.53,1.64,2.24,2.23,2.89,5.16,4.46,8.83,4.47,9.43,.02,18.86,.03,28.29-.02,4.03-.02,6.98-2.05,9.18-5.31,.14-.2,.22-.47,.41-.59,.24-.15,.56-.24,.85-.24,.1,0,.25,.3,.31,.49,1.07,3.71,2.06,7.43,2.2,11.32,0,.14,.07,.27,.11,.41v3.33c-.14,1.31-.26,2.63-.43,3.93-1.17,9.18-4.93,17.02-12.08,23.05-3.53,2.98-7.65,4.69-12.23,5.32-.16,.02-.31,.1-.47,.15h-4.2ZM18.04,37.12c-.05,.15-.15,.41-.23,.69-1.89,6.26-2.21,12.61-1.01,19.03,1.27,6.85,4.12,12.92,8.99,17.99,4.07,4.24,9.02,6.77,14.86,7.35,4.23,.42,8.26-.57,11.99-2.6,5.38-2.92,9.21-7.37,11.92-12.76,3.66-7.29,4.7-15.05,3.6-23.09-.31-2.27-.95-4.5-1.45-6.8-.19,.1-.25,.11-.27,.15-.11,.13-.21,.27-.31,.4-2.48,3.26-5.74,5.01-9.87,5.02-9.24,.02-18.49,.04-27.73,.02-2.54,0-4.96-.62-7-2.18-1.25-.96-2.33-2.14-3.49-3.22Z"/><path d="M50.82,14.72c.17,.38,.49,.76,.5,1.14,.04,3.69,.03,7.38,.02,11.07,0,.88-.27,1.15-1.15,1.15-5.1,0-10.2,0-15.31,0-.93,0-1.18-.25-1.18-1.19,0-3.67,0-7.33,0-11,0-.5,.09-.91,.56-1.17h1.99c0,2.45,.01,4.9,.02,7.34,0,1.12,0,2.25,.01,3.37,0,.55,.13,1.06,.69,1.33,.89,.43,1.74-.18,1.75-1.27,.02-2.03,0-4.06,0-6.09,0-1.56,.03-3.13,.04-4.69h2.25c.01,3.4,.02,6.79,.03,10.19,0,.35,0,.71,.08,1.05,.13,.61,.6,.98,1.18,.94,.59-.04,1.01-.33,1.12-.94,.06-.32,.07-.66,.08-.99,.01-3.42,.02-6.84,.03-10.25h2.78c0,.42,0,.84,0,1.26,0,3.13,0,6.26,0,9.4,0,.55,.08,1.07,.61,1.37,.83,.47,1.77-.09,1.78-1.12,.04-3.35,.04-6.7,.05-10.06,0-.28,.04-.57,.06-.85,.66,0,1.33,0,1.99,0Z"/><path class="cls-1" d="M30.48,14.84c0,.32,0,.61,0,.9,0,4.06,0,8.11,.03,12.17,.01,2.06,1.16,3.3,3.21,3.31,5.65,.05,11.3,.06,16.95,0,2.42-.02,3.5-1.22,3.5-3.64,0-3.98,0-7.97,0-11.95v-.77c4.06-.83,9.81,1.26,11.38,6.98,.87,3.19,.75,6.48-.13,9.67-1.08,3.88-4.84,6.63-9.01,6.73-2.77,.07-5.55,.04-8.33,.04-6.47,0-12.94,0-19.41-.03-5.07-.02-8.91-3.26-9.77-8.24-.47-2.73-.64-5.46,.19-8.17,1.52-4.91,6.18-7.82,11.39-7Zm24.72,.94c0,.31,0,.57,0,.83,0,3.74,.01,7.48,0,11.23-.01,2.69-1.54,4.27-4.22,4.43-.26,.02-.53,.02-.8,.02-5.38,0-10.77,0-16.15-.01-2.89,0-4.56-1.62-4.59-4.52-.04-3.69-.02-7.39-.03-11.08,0-.28,0-.57,0-.88-.24-.02-.4-.05-.56-.05-3.98-.08-7.5,2.45-8.72,6.25-.83,2.56-.68,5.15-.22,7.74,.82,4.63,4.17,7.47,8.88,7.49,7.15,.03,14.29,.03,21.44,.03,2.03,0,4.06,.03,6.08-.04,4.23-.14,7.68-2.98,8.34-7.08,.32-1.98,.3-4.04,.22-6.06-.12-2.97-1.54-5.29-4.03-6.91-1.68-1.09-3.55-1.55-5.64-1.39Z"/><path d="M42.36,66.19c-3.19,.01-5.71-2.49-5.72-5.68-.01-3.11,2.53-5.65,5.67-5.66,3.21-.01,5.71,2.48,5.7,5.68-.01,3.18-2.47,5.65-5.65,5.66Z"/></svg>