<?xml version="1.0" encoding="utf-8"?>
<!-- Generator: Adobe Illustrator 24.1.0, SVG Export Plug-In . SVG Version: 6.00 Build 0)  -->
<svg version="1.1" id="Layer_1" xmlns="http://www.w3.org/2000/svg" xmlns:xlink="http://www.w3.org/1999/xlink" x="0px" y="0px"
	 viewBox="0 0 24 24" style="enable-background:new 0 0 24 24;" xml:space="preserve">
<style type="text/css">
	.st0{fill:#404040;}
</style>
<path id="motorcross_bike" class="st0" d="M22.95,16.05c-0.04,0-0.09,0-0.13-0.01c0-0.03,0-0.06,0-0.09c0.04,0,0.09,0,0.13,0
	c0.03,0,0.05-0.02,0.05-0.05c0-0.02,0-0.03,0-0.05c0-0.03-0.02-0.05-0.05-0.05c-0.04,0-0.09,0-0.13,0c0-0.02,0-0.04,0-0.07
	c0.04,0,0.09-0.01,0.13-0.01c0.03,0,0.05-0.03,0.04-0.05c0-0.02,0-0.03-0.01-0.05c0-0.03-0.03-0.05-0.05-0.04
	c-0.04,0-0.09,0.01-0.13,0.01c0-0.03-0.01-0.07-0.01-0.1c0.04-0.01,0.08-0.02,0.13-0.02c0.03,0,0.04-0.03,0.04-0.06
	c0-0.02-0.01-0.03-0.01-0.05c-0.01-0.03-0.03-0.04-0.06-0.04c-0.04,0.01-0.08,0.02-0.13,0.02c-0.01-0.03-0.02-0.07-0.02-0.1
	c0.04-0.01,0.08-0.02,0.12-0.03c0.02-0.01,0.04-0.03,0.03-0.06c-0.01-0.02-0.01-0.03-0.01-0.05c-0.01-0.02-0.03-0.04-0.06-0.03
	c-0.04,0.01-0.08,0.02-0.12,0.03c-0.01-0.03-0.02-0.06-0.03-0.09c0.04-0.01,0.08-0.03,0.12-0.05c0.02-0.01,0.04-0.04,0.03-0.06
	c-0.01-0.02-0.01-0.03-0.02-0.05c-0.01-0.02-0.04-0.04-0.06-0.03c-0.04,0.02-0.08,0.03-0.12,0.05c-0.01-0.03-0.02-0.06-0.03-0.08
	c0.04-0.02,0.08-0.04,0.12-0.06c0.02-0.01,0.03-0.04,0.02-0.06c-0.01-0.01-0.01-0.03-0.02-0.05c-0.01-0.02-0.04-0.03-0.06-0.02
	c-0.04,0.02-0.08,0.04-0.12,0.06c-0.01-0.03-0.03-0.06-0.04-0.08c0.04-0.02,0.07-0.04,0.11-0.06c0.02-0.01,0.03-0.04,0.02-0.07
	c-0.01-0.01-0.02-0.03-0.02-0.04c-0.01-0.02-0.04-0.03-0.07-0.02c-0.04,0.02-0.07,0.04-0.11,0.06c-0.02-0.02-0.03-0.05-0.05-0.07
	c0.04-0.02,0.07-0.05,0.11-0.07c0.02-0.02,0.03-0.05,0.01-0.07c-0.01-0.01-0.02-0.03-0.03-0.04c-0.01-0.02-0.04-0.03-0.07-0.01
	c-0.04,0.02-0.07,0.05-0.11,0.07c-0.02-0.03-0.04-0.06-0.07-0.09c0.03-0.03,0.07-0.06,0.1-0.08c0.02-0.02,0.02-0.05,0.01-0.07
	c-0.01-0.01-0.02-0.03-0.03-0.04c-0.02-0.02-0.05-0.02-0.07-0.01c-0.03,0.03-0.07,0.06-0.1,0.08C22.08,14.04,22.04,14,22,13.96
	c0.03-0.03,0.06-0.06,0.09-0.09c0.02-0.02,0.02-0.05,0-0.07c-0.01-0.01-0.02-0.02-0.04-0.04c-0.02-0.02-0.05-0.02-0.07,0
	c-0.03,0.03-0.06,0.06-0.09,0.09c-0.03-0.03-0.07-0.06-0.1-0.09c0.03-0.03,0.05-0.07,0.08-0.1c0.02-0.02,0.01-0.05-0.01-0.07
	c-0.01-0.01-0.03-0.02-0.04-0.03c-0.02-0.02-0.05-0.01-0.07,0.01c-0.03,0.03-0.06,0.07-0.08,0.1c-0.02-0.02-0.04-0.03-0.06-0.05
	c0.02-0.03,0.05-0.07,0.07-0.11c0.01-0.02,0.01-0.05-0.01-0.07c-0.01-0.01-0.03-0.02-0.04-0.03c-0.02-0.02-0.05-0.01-0.07,0.01
	c-0.02,0.04-0.05,0.07-0.07,0.11c-0.02-0.02-0.05-0.03-0.07-0.05c0.02-0.04,0.04-0.07,0.06-0.11c0.01-0.02,0.01-0.05-0.02-0.07
	c-0.01-0.01-0.03-0.02-0.05-0.02c-0.02-0.01-0.05-0.01-0.06,0.02c-0.02,0.04-0.04,0.07-0.06,0.11c-0.03-0.01-0.05-0.03-0.08-0.04
	c0.02-0.04,0.04-0.08,0.06-0.12c0.01-0.02,0-0.05-0.02-0.06c-0.02-0.01-0.03-0.01-0.05-0.02c-0.02-0.01-0.05,0-0.06,0.02
	c-0.02,0.04-0.04,0.08-0.06,0.12c-0.04-0.02-0.07-0.03-0.11-0.05c0.01-0.04,0.03-0.08,0.04-0.12c0.01-0.02,0-0.05-0.03-0.06
	c-0.02-0.01-0.03-0.01-0.05-0.02c-0.02-0.01-0.05,0-0.06,0.03c-0.01,0.04-0.03,0.08-0.04,0.12c-0.03-0.01-0.06-0.02-0.1-0.03
	c0.01-0.04,0.02-0.08,0.03-0.12c0.01-0.02-0.01-0.05-0.03-0.06c-0.02,0-0.03-0.01-0.05-0.01c-0.02-0.01-0.05,0.01-0.06,0.03
	c-0.01,0.04-0.02,0.08-0.03,0.12c-0.04-0.01-0.08-0.02-0.13-0.03c0.01-0.04,0.01-0.08,0.02-0.13c0-0.03-0.01-0.05-0.04-0.05
	c-0.02,0-0.03-0.01-0.05-0.01c-0.03,0-0.05,0.01-0.06,0.04c-0.01,0.04-0.01,0.08-0.02,0.13c-0.03,0-0.06-0.01-0.09-0.01
	c0-0.04,0.01-0.09,0.01-0.13c0-0.03-0.02-0.05-0.04-0.05c-0.02,0-0.03,0-0.05,0c-0.03,0-0.05,0.02-0.05,0.04
	c0,0.04-0.01,0.09-0.01,0.13c-0.03,0-0.07,0-0.1,0c0-0.01,0-0.02,0-0.03c0.02-0.02,0.04-0.04,0.06-0.06
	c0.01-0.1,0.01-0.19,0.02-0.29c-0.51-0.14-1.16,0.02-1.6,0.24c-0.01-0.43-0.27-0.31-0.27-0.31c-0.32-0.62-0.63-1.24-0.94-1.86
	c1.1-0.67,2.22-0.39,3.33-0.04c0.91,0.29,0.59-0.27,0.21-0.48c-1.3-0.73-3.17-0.78-3.17-0.78c0.02-0.98-0.72-1.73-1.51-2.19
	c-0.45-0.26-0.33,0.21-0.33,0.21c-0.07,0.04-0.13,0.08-0.2,0.12c-0.08,0-0.16-0.01-0.24-0.01c0.03-0.58-0.43-0.41-0.43-0.41
	c-0.02-0.74-0.03-1.47-0.05-2.21c-0.82-0.37-0.75,1.26-0.75,1.26c0.13,0.01,0.25,0.02,0.38,0.03c0,0.35,0.01,0.7,0.01,1.05
	c-0.41-0.01-0.53,0.31-0.53,0.31c-0.11,0-0.21,0.01-0.32,0.01c0.01,0.12,0.01,0.23,0.02,0.35c0.16,0,0.32,0,0.49,0
	c-0.11,0.14,0.09,0.23,0.09,0.23c1.03-0.14,1.24,1.12,0,0.38c-1.29-0.77-3.09,1.02-3.09,1.02c-0.94,0.7-4.75-0.22-5.46-0.4
	C5.52,9.18,4.95,8.92,5.03,9.26C4.65,9.23,3.41,8.94,3.41,8.94C1.99,8.62,3.48,9.55,3.48,9.55c0.06,0.11-0.21,0.46-0.21,0.46
	C2.87,10,2.48,10,2.08,9.99c-0.17,0.06,0.01,0.29,0.01,0.29c0.32-0.05,0.44,0.12,0.44,0.12c0,0.11,0,0.21,0,0.32
	c-0.1,0.01-0.19,0.02-0.29,0.03c-0.22,0.46-0.45,0.91-0.67,1.37c0.35,0-0.14,0.46-0.14,0.46C1.29,12.57,1.15,12.56,1,12.55
	c0,0.15,0.01,0.31,0.01,0.46c0.31,0.41,1.81-1.93,1.81-1.93c0.17-0.26,0.41-0.14,0.41-0.14c0.91,0.43,1.82,0.9,2.73,1.33
	c0.5,0.23,0.58,0.07,0.58,0.07c0.81-0.23,2.1,1.2,2.1,1.2c-0.19,0-0.38-0.01-0.56-0.01c0,0.08,0.01,0.16,0.01,0.24
	c-0.06,0.01-0.11,0.01-0.17,0.02c-0.07-0.08-0.14-0.16-0.21-0.24c-0.33-0.3-0.23,0.29-0.23,0.29c-0.06,0-0.12,0-0.18,0
	c-0.07,0.04-0.13,0.07-0.2,0.11c0,0,0,0,0-0.01c0.03-0.03,0.07-0.05,0.1-0.08c0.02-0.02,0.02-0.05,0.01-0.07
	c-0.01-0.01-0.02-0.03-0.03-0.04c-0.02-0.02-0.05-0.02-0.07-0.01c-0.03,0.03-0.07,0.06-0.1,0.08c-0.03-0.04-0.07-0.08-0.1-0.11
	c0.03-0.03,0.06-0.06,0.09-0.09c0.02-0.02,0.02-0.05,0-0.07c-0.01-0.01-0.02-0.02-0.04-0.04c-0.02-0.02-0.05-0.02-0.07,0
	c-0.03,0.03-0.06,0.06-0.09,0.09c-0.03-0.03-0.07-0.06-0.1-0.09c0.03-0.03,0.05-0.07,0.08-0.1c0.02-0.02,0.01-0.05-0.01-0.07
	c-0.01-0.01-0.03-0.02-0.04-0.03c-0.02-0.02-0.05-0.01-0.07,0.01c-0.03,0.03-0.05,0.07-0.08,0.1c-0.02-0.02-0.04-0.03-0.06-0.05
	c0.02-0.04,0.05-0.07,0.07-0.11c0.02-0.02,0.01-0.05-0.01-0.07c-0.01-0.01-0.03-0.02-0.04-0.03c-0.02-0.01-0.05-0.01-0.07,0.01
	c-0.02,0.04-0.05,0.07-0.07,0.11c-0.02-0.02-0.05-0.03-0.07-0.05c0.02-0.04,0.04-0.07,0.06-0.11c0.01-0.02,0.01-0.05-0.02-0.07
	c-0.01-0.01-0.03-0.02-0.05-0.02c-0.02-0.01-0.05-0.01-0.06,0.02c-0.02,0.04-0.04,0.07-0.06,0.11c-0.03-0.01-0.05-0.03-0.08-0.04
	c0.02-0.04,0.04-0.08,0.06-0.12c0.01-0.02,0-0.05-0.02-0.06c-0.01-0.01-0.03-0.01-0.05-0.02c-0.02-0.01-0.05,0-0.06,0.02
	C6.03,13,6.01,13.04,5.99,13.07c-0.04-0.02-0.07-0.03-0.11-0.05c0.01-0.04,0.03-0.08,0.04-0.12c0.01-0.02,0-0.05-0.03-0.06
	c-0.02-0.01-0.03-0.01-0.05-0.02c-0.02-0.01-0.05,0-0.06,0.03c-0.01,0.04-0.03,0.08-0.04,0.12c-0.03-0.01-0.06-0.02-0.09-0.03
	c0.01-0.04,0.02-0.08,0.03-0.12c0.01-0.03-0.01-0.05-0.03-0.06c-0.02,0-0.03-0.01-0.05-0.01c-0.03-0.01-0.05,0.01-0.06,0.03
	c-0.01,0.04-0.02,0.08-0.03,0.12c-0.04-0.01-0.09-0.02-0.13-0.03c0.01-0.04,0.01-0.09,0.02-0.13c0-0.03-0.01-0.05-0.04-0.06
	c-0.02,0-0.03-0.01-0.05-0.01c-0.03,0-0.05,0.01-0.05,0.04c-0.01,0.04-0.01,0.08-0.02,0.13c-0.03,0-0.06-0.01-0.09-0.01
	c0-0.04,0.01-0.09,0.01-0.13c0-0.03-0.02-0.05-0.04-0.05c-0.02,0-0.03,0-0.05,0c-0.03,0-0.05,0.02-0.05,0.04
	c0,0.04-0.01,0.09-0.01,0.13c-0.03,0-0.07,0-0.1-0.01c0-0.04,0-0.09,0-0.13c0-0.03-0.02-0.05-0.05-0.05c-0.02,0-0.03,0-0.05,0
	c-0.03,0-0.05,0.02-0.05,0.05c0,0.04,0,0.09,0,0.13c-0.03,0-0.06,0-0.09,0c0-0.04-0.01-0.09-0.01-0.13c0-0.03-0.02-0.05-0.05-0.04
	c-0.02,0-0.03,0-0.05,0c-0.03,0-0.05,0.02-0.04,0.05c0,0.04,0.01,0.09,0.01,0.13c-0.04,0-0.07,0.01-0.11,0.01
	c-0.01-0.04-0.01-0.08-0.02-0.13c0-0.03-0.03-0.04-0.06-0.04c-0.02,0-0.03,0.01-0.05,0.01c-0.03,0-0.04,0.03-0.04,0.06
	c0.01,0.04,0.01,0.08,0.02,0.13c-0.03,0.01-0.07,0.01-0.1,0.02c-0.01-0.04-0.02-0.08-0.03-0.12c-0.01-0.02-0.03-0.04-0.06-0.03
	c-0.02,0-0.03,0.01-0.05,0.01C4,12.76,3.99,12.79,3.99,12.81C4,12.85,4.01,12.9,4.03,12.94c-0.04,0.01-0.09,0.02-0.13,0.04
	c-0.01-0.04-0.03-0.08-0.04-0.12c-0.01-0.02-0.04-0.04-0.06-0.03c-0.02,0.01-0.03,0.01-0.05,0.02c-0.02,0.01-0.04,0.04-0.03,0.06
	c0.01,0.04,0.03,0.08,0.04,0.12c-0.04,0.01-0.07,0.03-0.11,0.05c-0.02-0.04-0.04-0.08-0.06-0.12c-0.01-0.02-0.04-0.03-0.06-0.02
	c-0.01,0.01-0.03,0.01-0.05,0.02c-0.02,0.01-0.03,0.04-0.02,0.06c0.02,0.04,0.04,0.08,0.06,0.12c-0.04,0.02-0.08,0.04-0.12,0.07
	c-0.02-0.04-0.04-0.07-0.07-0.11c-0.01-0.02-0.04-0.03-0.07-0.02c-0.01,0.01-0.03,0.02-0.04,0.03c-0.02,0.01-0.03,0.04-0.02,0.06
	c0.02,0.04,0.04,0.07,0.07,0.11c-0.03,0.02-0.06,0.04-0.09,0.06c-0.02-0.03-0.05-0.07-0.08-0.1c-0.01-0.02-0.05-0.03-0.07-0.01
	C3.02,13.23,3.01,13.24,3,13.25c-0.02,0.02-0.03,0.05-0.01,0.07c0.03,0.03,0.05,0.07,0.08,0.1c-0.03,0.02-0.05,0.04-0.08,0.06
	c-0.03-0.03-0.06-0.07-0.08-0.1c-0.02-0.02-0.05-0.02-0.07,0c-0.01,0.01-0.03,0.02-0.04,0.03c-0.02,0.02-0.02,0.05,0,0.07
	c0.03,0.03,0.06,0.07,0.08,0.1c-0.03,0.03-0.07,0.06-0.1,0.09c-0.03-0.03-0.06-0.06-0.09-0.09c-0.02-0.02-0.05-0.02-0.07,0
	c-0.01,0.01-0.02,0.02-0.03,0.04c-0.02,0.02-0.02,0.05,0,0.07c0.03,0.03,0.06,0.06,0.09,0.09c-0.02,0.02-0.05,0.05-0.07,0.08
	c-0.03-0.03-0.07-0.05-0.1-0.08c-0.02-0.02-0.05-0.01-0.07,0.01c-0.01,0.01-0.02,0.03-0.03,0.04c-0.02,0.02-0.01,0.05,0.01,0.07
	c0.03,0.03,0.07,0.05,0.1,0.08c-0.02,0.03-0.04,0.06-0.07,0.09C2.42,14.03,2.38,14,2.34,13.98c-0.02-0.01-0.05-0.01-0.07,0.01
	C2.27,14,2.26,14.02,2.25,14.03c-0.01,0.02-0.01,0.05,0.01,0.07c0.03,0.02,0.07,0.05,0.11,0.07c-0.01,0.02-0.02,0.04-0.04,0.06
	c-0.04-0.02-0.08-0.04-0.11-0.06c-0.02-0.01-0.05,0-0.06,0.02c-0.01,0.01-0.02,0.03-0.03,0.04c-0.01,0.02,0,0.05,0.02,0.07
	c0.04,0.02,0.07,0.04,0.11,0.06c-0.01,0.03-0.03,0.06-0.04,0.08c-0.04-0.02-0.08-0.04-0.12-0.06c-0.02-0.01-0.05,0-0.06,0.02
	c-0.01,0.01-0.01,0.03-0.02,0.05c-0.01,0.02,0,0.05,0.02,0.06c0.04,0.02,0.08,0.04,0.12,0.05c-0.01,0.03-0.02,0.06-0.04,0.09
	C2.08,14.64,2.04,14.63,2,14.61c-0.02-0.01-0.05,0-0.06,0.03c-0.01,0.02-0.01,0.03-0.02,0.05c-0.01,0.02,0,0.05,0.03,0.06
	c0.04,0.02,0.08,0.03,0.12,0.05c-0.01,0.02-0.01,0.04-0.02,0.07c-0.04-0.01-0.08-0.02-0.12-0.04c-0.03-0.01-0.05,0.01-0.06,0.03
	c-0.01,0.02-0.01,0.03-0.01,0.05c-0.01,0.03,0.01,0.05,0.03,0.06c0.04,0.01,0.08,0.02,0.12,0.04C2,15.02,2,15.05,1.99,15.08
	c-0.04-0.01-0.08-0.02-0.13-0.03c-0.02,0-0.05,0.01-0.06,0.04c0,0.02-0.01,0.03-0.01,0.05c-0.01,0.03,0.01,0.05,0.04,0.06
	c0.04,0.01,0.08,0.02,0.13,0.03c0,0.03-0.01,0.05-0.01,0.08c-0.04-0.01-0.08-0.01-0.13-0.02c-0.03,0-0.05,0.01-0.05,0.04
	c0,0.02,0,0.03-0.01,0.05c0,0.03,0.02,0.05,0.04,0.05c0.04,0.01,0.08,0.01,0.13,0.02c0,0.03,0,0.06-0.01,0.08
	c-0.04,0-0.09,0-0.13-0.01c-0.03,0-0.05,0.02-0.05,0.05c0,0.02,0,0.03,0,0.05c0,0.03,0.02,0.05,0.05,0.05c0.04,0,0.09,0,0.13,0.01
	c0,0.03,0,0.06,0,0.09c-0.04,0-0.09,0-0.13,0c-0.03,0-0.05,0.02-0.05,0.05c0,0.02,0,0.03,0,0.05c0,0.03,0.02,0.05,0.05,0.05
	c0.04,0,0.09,0,0.13,0c0,0.02,0,0.04,0,0.06c-0.04,0-0.09,0.01-0.13,0.01c-0.03,0-0.05,0.03-0.04,0.05c0,0.02,0,0.03,0.01,0.05
	c0,0.03,0.03,0.04,0.05,0.04c0.04,0,0.09-0.01,0.13-0.01c0,0.03,0.01,0.07,0.01,0.1c-0.04,0.01-0.08,0.02-0.13,0.02
	c-0.02,0-0.04,0.03-0.04,0.06c0,0.02,0.01,0.03,0.01,0.05c0,0.02,0.03,0.04,0.06,0.04c0.04-0.01,0.08-0.02,0.13-0.02
	c0.01,0.03,0.01,0.07,0.02,0.1c-0.04,0.01-0.08,0.02-0.12,0.03c-0.02,0.01-0.04,0.03-0.03,0.06c0,0.02,0.01,0.03,0.01,0.05
	c0.01,0.03,0.03,0.04,0.06,0.03c0.04-0.01,0.08-0.02,0.12-0.03c0.01,0.03,0.02,0.06,0.03,0.09C2.04,16.7,2,16.71,1.96,16.73
	c-0.02,0.01-0.04,0.04-0.03,0.06c0.01,0.02,0.01,0.03,0.02,0.05c0.01,0.02,0.04,0.04,0.06,0.03c0.04-0.01,0.08-0.03,0.12-0.05
	c0.01,0.03,0.02,0.06,0.03,0.08c-0.04,0.02-0.08,0.04-0.12,0.06C2.02,16.97,2.01,17,2.02,17.02c0.01,0.02,0.01,0.03,0.02,0.05
	c0.01,0.02,0.04,0.03,0.06,0.02c0.04-0.02,0.08-0.04,0.12-0.06c0.01,0.03,0.03,0.06,0.04,0.08c-0.04,0.02-0.07,0.04-0.11,0.06
	c-0.02,0.01-0.03,0.04-0.02,0.07c0.01,0.01,0.02,0.03,0.02,0.04c0.01,0.02,0.04,0.03,0.07,0.02c0.04-0.02,0.07-0.04,0.11-0.06
	c0.02,0.02,0.03,0.05,0.05,0.07c-0.03,0.02-0.07,0.05-0.11,0.07c-0.02,0.01-0.03,0.05-0.01,0.07c0.01,0.01,0.02,0.03,0.03,0.04
	c0.01,0.02,0.05,0.03,0.07,0.01c0.03-0.02,0.07-0.05,0.11-0.07c0.02,0.03,0.04,0.06,0.06,0.09c-0.03,0.03-0.07,0.05-0.1,0.08
	c-0.02,0.02-0.02,0.05-0.01,0.07c0.01,0.01,0.02,0.03,0.03,0.04c0.02,0.02,0.05,0.02,0.07,0.01c0.03-0.03,0.07-0.06,0.1-0.08
	c0.03,0.04,0.07,0.08,0.1,0.11c-0.03,0.03-0.06,0.06-0.09,0.09c-0.02,0.02-0.02,0.05,0,0.07c0.01,0.01,0.02,0.02,0.04,0.04
	c0.02,0.02,0.05,0.02,0.07,0c0.03-0.03,0.06-0.06,0.09-0.09c0.03,0.03,0.07,0.06,0.1,0.09c-0.03,0.03-0.05,0.07-0.08,0.1
	c-0.02,0.02-0.01,0.05,0.01,0.07c0.01,0.01,0.03,0.02,0.04,0.03c0.02,0.02,0.05,0.01,0.07-0.01c0.03-0.03,0.05-0.07,0.08-0.1
	c0.02,0.02,0.04,0.03,0.06,0.05c-0.02,0.04-0.05,0.07-0.07,0.11c-0.01,0.02-0.01,0.05,0.01,0.07c0.01,0.01,0.03,0.02,0.04,0.03
	c0.02,0.01,0.05,0.01,0.07-0.01c0.02-0.04,0.05-0.07,0.07-0.11c0.02,0.02,0.05,0.03,0.07,0.05c-0.02,0.04-0.04,0.07-0.06,0.11
	c-0.01,0.02-0.01,0.05,0.02,0.07c0.01,0.01,0.03,0.02,0.04,0.02c0.02,0.01,0.05,0.01,0.07-0.02c0.02-0.04,0.04-0.07,0.06-0.11
	c0.03,0.01,0.05,0.03,0.08,0.04c-0.02,0.04-0.04,0.08-0.06,0.12c-0.01,0.02,0,0.05,0.02,0.06c0.01,0.01,0.03,0.01,0.05,0.02
	c0.02,0.01,0.05,0,0.06-0.02c0.02-0.04,0.04-0.08,0.06-0.12c0.04,0.02,0.07,0.03,0.11,0.05c-0.01,0.04-0.03,0.08-0.04,0.12
	c-0.01,0.02,0,0.05,0.03,0.06c0.02,0.01,0.03,0.01,0.05,0.02c0.02,0.01,0.05,0,0.06-0.03c0.01-0.04,0.03-0.08,0.05-0.12
	c0.03,0.01,0.06,0.02,0.09,0.03c-0.01,0.04-0.02,0.08-0.03,0.12c-0.01,0.02,0.01,0.05,0.03,0.06c0.02,0,0.03,0.01,0.05,0.01
	c0.02,0.01,0.05-0.01,0.06-0.03c0.01-0.04,0.02-0.08,0.03-0.12c0.04,0.01,0.08,0.02,0.13,0.03c-0.01,0.04-0.01,0.09-0.02,0.13
	c0,0.03,0.01,0.05,0.04,0.06c0.02,0,0.03,0.01,0.05,0.01c0.02,0,0.05-0.01,0.05-0.04c0.01-0.04,0.01-0.08,0.02-0.13
	c0.03,0,0.06,0.01,0.09,0.01c0,0.04-0.01,0.09-0.01,0.13c0,0.03,0.02,0.05,0.04,0.05c0.02,0,0.03,0,0.05,0
	c0.03,0,0.05-0.02,0.05-0.04c0-0.04,0.01-0.09,0.01-0.13c0.03,0,0.07,0,0.1,0c0,0.04,0,0.09,0,0.13c0,0.03,0.02,0.05,0.05,0.05
	c0.02,0,0.03,0,0.05,0c0.03,0,0.05-0.02,0.05-0.05c0-0.04,0-0.09,0-0.13c0.03,0,0.06,0,0.09,0c0,0.04,0.01,0.09,0.01,0.13
	c0,0.03,0.02,0.05,0.05,0.04c0.02,0,0.03,0,0.05,0c0.03,0,0.05-0.02,0.04-0.05c0-0.04-0.01-0.09-0.01-0.13
	c0.04,0,0.07-0.01,0.11-0.01c0.01,0.04,0.01,0.08,0.02,0.13c0,0.03,0.03,0.04,0.05,0.04c0.02,0,0.03-0.01,0.05-0.01
	c0.03,0,0.04-0.03,0.04-0.06c-0.01-0.04-0.01-0.08-0.02-0.13c0.03-0.01,0.07-0.01,0.1-0.02c0.01,0.04,0.02,0.08,0.03,0.12
	c0.01,0.02,0.03,0.04,0.06,0.03c0.02,0,0.03-0.01,0.05-0.01c0.03-0.01,0.04-0.03,0.03-0.06c-0.01-0.04-0.02-0.08-0.03-0.12
	c0.04-0.01,0.09-0.03,0.13-0.04c0.02,0.04,0.03,0.08,0.05,0.12c0.01,0.02,0.04,0.04,0.06,0.03c0.02-0.01,0.03-0.01,0.05-0.02
	c0.02-0.01,0.04-0.04,0.03-0.06c-0.01-0.04-0.03-0.08-0.04-0.12c0.04-0.01,0.07-0.03,0.11-0.05c0.02,0.04,0.04,0.08,0.06,0.12
	c0.01,0.02,0.04,0.03,0.06,0.02c0.01-0.01,0.03-0.01,0.05-0.02c0.02-0.01,0.03-0.04,0.02-0.06c-0.02-0.04-0.04-0.08-0.06-0.12
	c0.04-0.02,0.08-0.04,0.12-0.07c0.02,0.04,0.04,0.07,0.07,0.11c0.01,0.02,0.04,0.03,0.07,0.02c0.01-0.01,0.03-0.02,0.04-0.03
	c0.02-0.01,0.03-0.04,0.02-0.06c-0.02-0.04-0.04-0.07-0.07-0.11c0.03-0.02,0.06-0.04,0.09-0.06c0.02,0.03,0.05,0.07,0.07,0.1
	c0.02,0.02,0.05,0.03,0.07,0.01c0.01-0.01,0.03-0.02,0.04-0.03c0.02-0.02,0.03-0.05,0.01-0.07c-0.02-0.03-0.05-0.07-0.07-0.1
	C6.6,18.02,6.63,18,6.66,17.98c0.03,0.03,0.06,0.06,0.08,0.1c0.02,0.02,0.05,0.02,0.07,0.01c0.01-0.01,0.03-0.02,0.04-0.03
	c0.02-0.02,0.02-0.05,0-0.07c-0.03-0.03-0.06-0.07-0.08-0.1c0.03-0.03,0.07-0.06,0.1-0.09c0.03,0.03,0.06,0.06,0.09,0.09
	c0.02,0.02,0.05,0.02,0.07,0c0.01-0.01,0.02-0.02,0.03-0.04c0.02-0.02,0.02-0.05,0-0.07C7.03,17.75,7,17.71,6.96,17.69
	c0.02-0.02,0.05-0.05,0.07-0.08c0.03,0.03,0.07,0.05,0.1,0.08c0.02,0.02,0.05,0.01,0.07-0.01c0.01-0.01,0.02-0.03,0.03-0.04
	c0.02-0.02,0.01-0.05-0.01-0.07c-0.03-0.03-0.07-0.05-0.1-0.08c0.02-0.03,0.04-0.06,0.07-0.09c0.04,0.02,0.07,0.05,0.11,0.07
	c0.02,0.01,0.05,0.01,0.07-0.01c0.01-0.01,0.02-0.03,0.03-0.04c0.01-0.02,0.01-0.05-0.01-0.07c-0.03-0.02-0.07-0.05-0.11-0.07
	c0.01-0.02,0.02-0.04,0.04-0.06c0.04,0.02,0.08,0.04,0.11,0.06c0.02,0.01,0.05,0,0.06-0.02c0.01-0.01,0.02-0.03,0.02-0.04
	c0.01-0.02,0.01-0.05-0.02-0.06c-0.04-0.02-0.07-0.04-0.11-0.06c0.02-0.03,0.03-0.06,0.04-0.08c0.04,0.02,0.08,0.04,0.12,0.05
	c0.02,0.01,0.05,0,0.06-0.02c0.01-0.01,0.01-0.03,0.02-0.05c0.01-0.02,0-0.05-0.02-0.06c-0.04-0.02-0.08-0.04-0.12-0.06
	c0.01-0.03,0.02-0.06,0.04-0.08c0.04,0.01,0.08,0.03,0.12,0.04c0.02,0.01,0.05,0,0.06-0.03c0.01-0.02,0.01-0.03,0.02-0.05
	c0.01-0.02,0-0.05-0.03-0.06c-0.04-0.01-0.08-0.03-0.12-0.05c0.01-0.02,0.01-0.04,0.02-0.06c0.04,0.01,0.08,0.02,0.12,0.03
	c0.02,0.01,0.05-0.01,0.06-0.03c0-0.02,0.01-0.03,0.01-0.05c0.01-0.02-0.01-0.05-0.03-0.06c-0.04-0.01-0.08-0.02-0.12-0.04
	c0.01-0.03,0.01-0.05,0.02-0.08c0.04,0.01,0.08,0.02,0.13,0.03c0.02,0,0.05-0.01,0.06-0.04c0-0.02,0.01-0.03,0.01-0.05
	c0.01-0.03-0.01-0.05-0.04-0.06c-0.04-0.01-0.08-0.02-0.13-0.03c0-0.02,0.01-0.05,0.01-0.08c0.04,0.01,0.08,0.01,0.13,0.02
	c0.03,0,0.05-0.01,0.05-0.04c0-0.02,0-0.03,0.01-0.05c0-0.03-0.02-0.05-0.04-0.05c-0.04-0.01-0.09-0.01-0.13-0.02
	c0-0.01,0-0.02,0-0.02c0.01,0,0.02,0,0.03,0c0.34-0.01,0.68-0.03,1.02-0.05c-0.29,0.58,0.12,0.56,0.12,0.56
	c0.52-0.01,1.05-0.01,1.57-0.02c0.35,0.59,0.56,0.02,0.56,0.02c0.61,0,1.21-0.01,1.82-0.01c1.33-0.01,1.77-0.29,2-1.83
	c0.08,0,0.15,0,0.23,0c0,0.84,0.17,0.73,0.17,0.73c0.18,0,0.15-0.85,0.15-0.85c0.27-0.9-0.05-1.45-0.05-1.45
	c-0.06-0.88,0.49-1.66,0.49-1.66c-0.06,0.4,0.43,0.26,0.43,0.26c-0.08,1.1,0.96,2.07,0.96,2.07c-0.56,0.74-0.55,1.66-0.55,1.66
	c0.08-0.02,0.15-0.05,0.23-0.07c0,0.01-0.01,0.03-0.01,0.04c-0.01,0.03,0.01,0.05,0.04,0.06c0.04,0.01,0.08,0.02,0.13,0.03
	c0,0.03-0.01,0.05-0.01,0.08c-0.04-0.01-0.09-0.01-0.13-0.02c-0.03,0-0.05,0.01-0.05,0.04c0,0.02,0,0.03-0.01,0.05
	c0,0.03,0.02,0.05,0.04,0.05c0.04,0.01,0.09,0.01,0.13,0.02c0,0.03,0,0.05-0.01,0.08c-0.04,0-0.09,0-0.13-0.01
	c-0.03,0-0.05,0.02-0.05,0.05c0,0.02,0,0.03,0,0.05c0,0.03,0.02,0.05,0.05,0.05c0.04,0,0.09,0,0.13,0.01c0,0.03,0,0.06,0,0.09
	c-0.04,0-0.09,0-0.13,0c-0.03,0-0.05,0.02-0.05,0.05c0,0.02,0,0.03,0,0.05c0,0.03,0.02,0.05,0.05,0.05c0.04,0,0.09,0,0.13,0
	c0,0.02,0,0.04,0,0.07c-0.04,0-0.09,0.01-0.13,0.01c-0.03,0-0.04,0.03-0.04,0.05c0,0.02,0,0.03,0.01,0.05
	c0,0.03,0.03,0.05,0.05,0.04c0.04,0,0.09-0.01,0.13-0.01c0,0.03,0.01,0.07,0.01,0.1c-0.04,0.01-0.08,0.02-0.13,0.02
	c-0.03,0-0.04,0.03-0.04,0.06c0,0.02,0.01,0.03,0.01,0.05c0,0.02,0.03,0.04,0.06,0.04c0.04-0.01,0.09-0.02,0.13-0.02
	c0.01,0.03,0.02,0.07,0.02,0.1c-0.04,0.01-0.08,0.02-0.12,0.03c-0.02,0.01-0.04,0.03-0.03,0.06c0.01,0.02,0.01,0.03,0.01,0.05
	c0.01,0.02,0.03,0.04,0.06,0.03c0.04-0.01,0.08-0.02,0.12-0.03c0.01,0.03,0.02,0.06,0.03,0.09c-0.04,0.01-0.08,0.03-0.12,0.05
	c-0.02,0.01-0.04,0.04-0.03,0.06c0.01,0.02,0.01,0.03,0.02,0.05c0.01,0.02,0.04,0.04,0.06,0.03c0.04-0.01,0.08-0.03,0.12-0.05
	c0.01,0.03,0.02,0.06,0.03,0.08c-0.04,0.02-0.08,0.04-0.12,0.05c-0.02,0.01-0.03,0.04-0.02,0.06c0.01,0.01,0.01,0.03,0.02,0.05
	c0.01,0.02,0.04,0.03,0.06,0.02c0.04-0.02,0.08-0.04,0.12-0.06c0.01,0.03,0.03,0.06,0.04,0.08c-0.04,0.02-0.07,0.04-0.11,0.06
	c-0.02,0.01-0.03,0.04-0.02,0.06c0.01,0.02,0.02,0.03,0.02,0.05c0.01,0.02,0.04,0.03,0.07,0.02c0.04-0.02,0.07-0.04,0.11-0.06
	c0.01,0.02,0.03,0.05,0.05,0.07c-0.04,0.02-0.07,0.05-0.11,0.07c-0.02,0.01-0.03,0.05-0.01,0.07c0.01,0.01,0.02,0.03,0.03,0.04
	c0.01,0.02,0.04,0.03,0.07,0.01c0.04-0.02,0.07-0.05,0.11-0.07c0.02,0.03,0.04,0.06,0.07,0.09c-0.03,0.03-0.07,0.05-0.1,0.08
	c-0.02,0.02-0.02,0.05-0.01,0.07c0.01,0.01,0.02,0.03,0.03,0.04c0.02,0.02,0.05,0.02,0.07,0.01c0.03-0.03,0.07-0.06,0.1-0.08
	c0.03,0.04,0.07,0.08,0.11,0.11c-0.03,0.03-0.06,0.06-0.09,0.09c-0.02,0.02-0.02,0.05,0,0.07c0.01,0.01,0.02,0.02,0.04,0.04
	c0.02,0.02,0.05,0.02,0.07,0c0.03-0.03,0.06-0.06,0.09-0.09c0.03,0.03,0.07,0.06,0.1,0.09c-0.03,0.03-0.05,0.07-0.08,0.1
	c-0.02,0.02-0.01,0.05,0.01,0.07c0.01,0.01,0.03,0.02,0.04,0.03c0.02,0.02,0.05,0.01,0.07-0.01c0.03-0.03,0.05-0.07,0.08-0.1
	c0.02,0.02,0.04,0.03,0.06,0.05c-0.02,0.04-0.05,0.07-0.07,0.11c-0.01,0.02-0.01,0.05,0.01,0.07c0.01,0.01,0.03,0.02,0.04,0.03
	c0.02,0.01,0.05,0.01,0.07-0.01c0.02-0.03,0.05-0.07,0.07-0.11c0.02,0.02,0.05,0.03,0.07,0.05c-0.02,0.04-0.04,0.07-0.06,0.11
	c-0.01,0.02-0.01,0.05,0.02,0.07c0.01,0.01,0.03,0.02,0.05,0.02c0.02,0.01,0.05,0.01,0.06-0.02c0.02-0.04,0.04-0.07,0.06-0.11
	c0.03,0.01,0.05,0.03,0.08,0.04c-0.02,0.04-0.04,0.08-0.06,0.12c-0.01,0.02,0,0.05,0.02,0.06c0.02,0.01,0.03,0.01,0.05,0.02
	c0.02,0.01,0.05,0,0.06-0.02c0.02-0.04,0.04-0.08,0.06-0.12c0.04,0.02,0.07,0.03,0.11,0.05c-0.01,0.04-0.03,0.08-0.04,0.12
	c-0.01,0.02,0,0.05,0.03,0.06c0.02,0.01,0.03,0.01,0.05,0.02c0.02,0.01,0.05,0,0.06-0.03c0.01-0.04,0.03-0.08,0.04-0.12
	c0.03,0.01,0.06,0.02,0.1,0.03c-0.01,0.04-0.02,0.08-0.03,0.12c-0.01,0.02,0.01,0.05,0.03,0.06c0.02,0,0.03,0.01,0.05,0.01
	c0.02,0.01,0.05-0.01,0.06-0.03c0.01-0.04,0.02-0.08,0.03-0.12c0.04,0.01,0.08,0.02,0.13,0.03c-0.01,0.04-0.01,0.08-0.02,0.13
	c0,0.02,0.01,0.05,0.04,0.05c0.02,0,0.03,0.01,0.05,0.01c0.03,0,0.05-0.01,0.05-0.04c0.01-0.04,0.02-0.09,0.02-0.13
	c0.03,0,0.06,0.01,0.09,0.01c0,0.04-0.01,0.09-0.01,0.13c0,0.03,0.02,0.05,0.04,0.05c0.02,0,0.03,0,0.05,0
	c0.03,0,0.05-0.02,0.05-0.04c0-0.04,0.01-0.09,0.01-0.13c0.03,0,0.07,0,0.1,0c0,0.04,0,0.09,0,0.13c0,0.03,0.02,0.05,0.05,0.05
	c0.02,0,0.03,0,0.05,0c0.03,0,0.05-0.02,0.05-0.05c0-0.04,0-0.09,0-0.13c0.03,0,0.06,0,0.09,0c0,0.04,0.01,0.09,0.01,0.13
	c0,0.03,0.02,0.05,0.05,0.04c0.02,0,0.03,0,0.05,0c0.03,0,0.05-0.02,0.04-0.05c0-0.04-0.01-0.09-0.01-0.13
	c0.04,0,0.07-0.01,0.11-0.01c0.01,0.04,0.01,0.09,0.02,0.13c0,0.03,0.03,0.04,0.05,0.04c0.02,0,0.03-0.01,0.05-0.01
	c0.03,0,0.04-0.03,0.04-0.05c-0.01-0.04-0.01-0.09-0.02-0.13c0.03-0.01,0.07-0.01,0.1-0.02c0.01,0.04,0.02,0.08,0.03,0.12
	c0.01,0.03,0.03,0.04,0.06,0.03c0.02,0,0.03-0.01,0.05-0.01c0.02-0.01,0.04-0.03,0.03-0.06c-0.01-0.04-0.02-0.08-0.03-0.12
	c0.04-0.01,0.09-0.03,0.13-0.04c0.01,0.04,0.03,0.08,0.04,0.12c0.01,0.02,0.04,0.04,0.06,0.03c0.02-0.01,0.03-0.01,0.05-0.02
	c0.02-0.01,0.04-0.04,0.03-0.06c-0.01-0.04-0.03-0.08-0.04-0.12c0.04-0.01,0.07-0.03,0.11-0.05c0.02,0.04,0.04,0.08,0.06,0.12
	c0.01,0.02,0.04,0.03,0.06,0.02c0.02-0.01,0.03-0.01,0.05-0.02c0.02-0.01,0.03-0.04,0.02-0.06c-0.02-0.04-0.04-0.08-0.05-0.12
	c0.04-0.02,0.08-0.04,0.12-0.07c0.02,0.04,0.04,0.07,0.07,0.11c0.01,0.02,0.04,0.03,0.07,0.02c0.01-0.01,0.03-0.02,0.04-0.03
	c0.02-0.01,0.03-0.04,0.02-0.07c-0.02-0.04-0.04-0.07-0.07-0.11c0.03-0.02,0.06-0.04,0.09-0.06c0.02,0.03,0.05,0.07,0.08,0.1
	c0.01,0.02,0.05,0.03,0.07,0.01c0.01-0.01,0.03-0.02,0.04-0.03c0.02-0.01,0.03-0.05,0.01-0.07c-0.02-0.03-0.05-0.07-0.08-0.1
	c0.03-0.02,0.05-0.04,0.08-0.06c0.03,0.03,0.06,0.06,0.08,0.1c0.02,0.02,0.05,0.02,0.07,0.01c0.01-0.01,0.03-0.02,0.04-0.03
	c0.02-0.02,0.02-0.05,0.01-0.07c-0.03-0.03-0.06-0.07-0.08-0.1c0.03-0.03,0.07-0.06,0.1-0.09c0.03,0.03,0.06,0.06,0.09,0.09
	c0.02,0.02,0.05,0.02,0.07,0c0.01-0.01,0.02-0.02,0.03-0.04c0.02-0.02,0.02-0.05,0-0.07c-0.03-0.03-0.06-0.06-0.09-0.09
	c0.02-0.02,0.05-0.05,0.07-0.07c0.03,0.03,0.07,0.05,0.1,0.08c0.02,0.02,0.05,0.01,0.07-0.01c0.01-0.01,0.02-0.03,0.03-0.04
	c0.02-0.02,0.01-0.05-0.01-0.07c-0.03-0.03-0.07-0.05-0.1-0.08c0.02-0.03,0.05-0.06,0.07-0.09c0.04,0.02,0.07,0.05,0.11,0.07
	c0.02,0.01,0.05,0.01,0.07-0.01c0.01-0.01,0.02-0.03,0.03-0.04c0.01-0.02,0.01-0.05-0.01-0.07c-0.04-0.02-0.07-0.05-0.11-0.07
	c0.01-0.02,0.02-0.04,0.04-0.06c0.04,0.02,0.07,0.04,0.11,0.06c0.02,0.01,0.05,0,0.06-0.02c0.01-0.01,0.02-0.03,0.03-0.05
	c0.01-0.02,0-0.05-0.02-0.06c-0.04-0.02-0.07-0.04-0.11-0.06c0.01-0.03,0.03-0.06,0.04-0.08c0.04,0.02,0.08,0.04,0.12,0.05
	c0.02,0.01,0.05,0,0.06-0.02c0.01-0.02,0.01-0.03,0.02-0.05c0.01-0.02,0-0.05-0.02-0.06c-0.04-0.02-0.08-0.04-0.12-0.06
	c0.01-0.03,0.02-0.06,0.04-0.09c0.04,0.02,0.08,0.03,0.12,0.05c0.02,0.01,0.05,0,0.06-0.03c0.01-0.02,0.01-0.03,0.02-0.05
	c0.01-0.02,0-0.05-0.03-0.06c-0.04-0.01-0.08-0.03-0.12-0.04c0.01-0.02,0.01-0.04,0.02-0.07c0.04,0.01,0.08,0.02,0.12,0.04
	c0.02,0.01,0.05-0.01,0.06-0.03c0-0.02,0.01-0.03,0.01-0.05c0.01-0.02-0.01-0.05-0.03-0.06c-0.04-0.01-0.08-0.02-0.12-0.04
	c0.01-0.03,0.01-0.05,0.02-0.08c0.04,0.01,0.08,0.02,0.13,0.03c0.03,0.01,0.05-0.01,0.06-0.04c0-0.02,0.01-0.03,0.01-0.05
	c0.01-0.03-0.01-0.05-0.04-0.06c-0.04-0.01-0.08-0.02-0.13-0.03c0-0.03,0.01-0.05,0.01-0.08c0.04,0.01,0.09,0.01,0.13,0.02
	c0.03,0,0.05-0.01,0.05-0.04c0-0.02,0-0.03,0.01-0.05c0-0.03-0.01-0.05-0.04-0.05c-0.04-0.01-0.09-0.01-0.13-0.02
	c0-0.03,0-0.05,0.01-0.08c0.04,0,0.09,0,0.13,0.01c0.03,0,0.05-0.02,0.05-0.05c0-0.02,0-0.03,0-0.05
	C23,16.08,22.98,16.05,22.95,16.05z M5.73,13.72c0.29,0.13,0.55,0.33,0.76,0.57c-0.39,0.22-0.77,0.44-1.16,0.66
	C5.47,14.54,5.6,14.13,5.73,13.72z M5.56,13.65c0.03,0.01,0.06,0.02,0.09,0.03c-0.15,0.45-0.29,0.9-0.44,1.35c0,0,0,0,0,0
	C5.17,15.01,5.15,15,5.12,14.99C5.26,14.54,5.41,14.09,5.56,13.65z M5.36,13.59c0.03,0.01,0.07,0.02,0.1,0.03
	c-0.15,0.45-0.29,0.9-0.44,1.34c-0.03-0.01-0.07-0.02-0.1-0.02C5.07,14.49,5.21,14.04,5.36,13.59z M5.26,13.57
	c-0.15,0.45-0.3,0.91-0.44,1.37c-0.04,0-0.08,0-0.12,0.01c-0.22-0.43-0.43-0.85-0.65-1.28C4.43,13.52,4.86,13.48,5.26,13.57z
	 M3.95,13.7c0.22,0.42,0.43,0.84,0.64,1.26c-0.03,0.01-0.06,0.02-0.09,0.03c-0.21-0.42-0.43-0.84-0.64-1.26
	C3.89,13.72,3.92,13.71,3.95,13.7z M3.78,13.78c0.21,0.42,0.43,0.84,0.64,1.26c-0.03,0.02-0.06,0.04-0.09,0.06
	c-0.21-0.42-0.43-0.84-0.64-1.26C3.72,13.82,3.75,13.8,3.78,13.78z M3.6,13.89c0.22,0.43,0.43,0.85,0.65,1.28
	c-0.03,0.03-0.05,0.06-0.08,0.09c-0.45-0.15-0.91-0.3-1.37-0.44C2.98,14.43,3.26,14.11,3.6,13.89z M2.77,14.91
	c0.45,0.15,0.9,0.29,1.35,0.44c-0.02,0.03-0.03,0.06-0.04,0.09c-0.45-0.15-0.9-0.29-1.34-0.44C2.75,14.97,2.76,14.94,2.77,14.91z
	 M2.7,15.1c0.45,0.15,0.9,0.29,1.34,0.44c-0.01,0.03-0.01,0.06-0.02,0.09c-0.45-0.15-0.9-0.29-1.35-0.44
	C2.69,15.16,2.69,15.13,2.7,15.1z M2.66,15.29c0.46,0.15,0.91,0.3,1.37,0.44c0,0.04,0,0.08,0.01,0.12
	c-0.43,0.22-0.85,0.43-1.28,0.65C2.61,16.12,2.57,15.69,2.66,15.29z M2.83,16.68c-0.01-0.03-0.03-0.06-0.04-0.08
	c0.42-0.21,0.84-0.43,1.26-0.64c0.01,0.03,0.02,0.06,0.03,0.09C3.67,16.25,3.25,16.47,2.83,16.68z M2.92,16.86
	c-0.02-0.03-0.03-0.06-0.05-0.09c0.42-0.21,0.84-0.43,1.26-0.64c0.02,0.03,0.04,0.06,0.06,0.08C3.77,16.43,3.34,16.65,2.92,16.86z
	 M3.9,17.74c-0.38-0.17-0.7-0.45-0.93-0.79c0.43-0.22,0.85-0.43,1.28-0.65c0.03,0.03,0.06,0.06,0.09,0.08
	C4.2,16.83,4.05,17.28,3.9,17.74z M4.09,17.81C4.06,17.8,4.03,17.79,4,17.78c0.15-0.45,0.29-0.9,0.44-1.35
	c0.03,0.02,0.06,0.03,0.09,0.04C4.38,16.92,4.24,17.37,4.09,17.81z M4.28,17.87c-0.03-0.01-0.06-0.02-0.09-0.02
	c0.15-0.45,0.29-0.89,0.44-1.34c0.03,0.01,0.06,0.01,0.09,0.02C4.57,16.97,4.42,17.42,4.28,17.87z M4.38,17.89
	c0.15-0.45,0.3-0.91,0.44-1.36c0.04,0,0.08,0,0.12-0.01c0.22,0.43,0.43,0.85,0.65,1.28C5.21,17.94,4.78,17.97,4.38,17.89z
	 M5.69,17.76c-0.22-0.42-0.43-0.84-0.64-1.26c0.03-0.01,0.07-0.02,0.1-0.03c0.21,0.42,0.43,0.84,0.64,1.26
	C5.75,17.73,5.72,17.75,5.69,17.76z M5.87,17.67c-0.21-0.42-0.43-0.84-0.64-1.26c0.03-0.02,0.05-0.03,0.08-0.05
	c0.21,0.42,0.43,0.84,0.64,1.26C5.92,17.64,5.9,17.66,5.87,17.67z M6.04,17.57c-0.22-0.43-0.43-0.85-0.65-1.28
	c0.03-0.03,0.05-0.06,0.08-0.09c0.45,0.15,0.91,0.3,1.36,0.44C6.66,17.02,6.38,17.34,6.04,17.57z M6.87,16.55
	c-0.39-0.13-0.78-0.26-1.17-0.38c0.08-0.01,0.16-0.01,0.23-0.02c0.33,0.11,0.65,0.21,0.97,0.32C6.89,16.49,6.88,16.52,6.87,16.55z
	 M6.93,16.37c-0.25-0.08-0.5-0.16-0.75-0.24c0.09-0.01,0.17-0.01,0.26-0.02c0.17,0.06,0.34,0.11,0.51,0.17
	C6.95,16.3,6.94,16.34,6.93,16.37z M6.98,16.17c-0.09-0.03-0.18-0.06-0.27-0.09c0.1-0.01,0.2-0.02,0.3-0.03
	C7,16.09,6.99,16.13,6.98,16.17z M6.45,11.67c-0.83-0.36-1.67-0.72-2.5-1.08c0,0-0.17-0.26-0.05-0.46c0.87,0.36,1.74,0.72,2.6,1.08
	C6.51,11.21,6.68,11.49,6.45,11.67z M7.53,11.64c0,0-0.56,0.15-0.79-0.02c0,0,0.19-0.58-0.15-0.94C6.59,10.68,8.57,11.36,7.53,11.64
	z M10.32,11.73c0,0-3.14-1.87-4.06-1.98c0,0,0.28-0.19,0.76-0.06c0,0,3.35,0.85,4.38,0.11c0,0,0.27-0.24,0.87-0.05
	c0,0,1.26,0.27,1.54,0.79c0,0-1.87,0.02-2.72,1.25C11.08,11.79,10.96,12.14,10.32,11.73z M11.69,15.32c-0.33,0-0.59-0.27-0.59-0.59
	c0-0.33,0.27-0.59,0.59-0.59c0.33,0,0.59,0.27,0.59,0.59C12.28,15.06,12.01,15.32,11.69,15.32z M13.42,11.76
	c0,0-0.82-0.41-1.48-0.36c0,0,0.5-0.76,2.83-0.56C14.78,10.83,13.61,11.12,13.42,11.76z M14.28,9.52c0,0-0.61-0.27,0.02,0.23
	c0,0,1.17,0.84,0.11,0.27c-0.4-0.22-0.8-0.45-1.2-0.67c0,0-0.76-0.31,0.03-0.41c0,0,0.27,0,0.41-0.14c0,0,0.27-0.21,0.41,0.17
	c0,0,0.03,0.35,1.04,0.7c0,0,0.59,0.2,0.84,0.4C15.92,10.07,15.01,9.98,14.28,9.52z M21.91,15.02c0.02,0.03,0.03,0.06,0.04,0.09
	c-0.42,0.22-0.84,0.43-1.27,0.65c-0.01-0.03-0.02-0.07-0.03-0.1C21.07,15.45,21.49,15.24,21.91,15.02z M21.82,14.85
	c0.02,0.03,0.03,0.05,0.05,0.08c-0.42,0.21-0.84,0.43-1.26,0.64c-0.02-0.03-0.03-0.05-0.05-0.08
	C20.97,15.28,21.39,15.07,21.82,14.85z M20.83,13.97c0.38,0.17,0.7,0.45,0.93,0.79c-0.43,0.22-0.85,0.43-1.28,0.65
	c-0.03-0.03-0.06-0.05-0.09-0.08C20.54,14.88,20.68,14.43,20.83,13.97z M20.65,13.9c0.03,0.01,0.06,0.02,0.09,0.03
	c-0.15,0.45-0.29,0.9-0.44,1.35c-0.03-0.01-0.06-0.03-0.08-0.04C20.36,14.8,20.51,14.35,20.65,13.9z M20.46,13.84
	c0.03,0.01,0.07,0.02,0.1,0.03c-0.15,0.45-0.29,0.9-0.44,1.34c-0.02-0.03-0.05-0.07-0.07-0.11C20.18,14.68,20.32,14.26,20.46,13.84z
	 M20.36,13.82c-0.13,0.39-0.26,0.79-0.39,1.18c-0.26-0.37-0.51-0.74-0.77-1.11C19.57,13.76,19.98,13.74,20.36,13.82z M17.86,15.16
	c0.33,0.11,0.66,0.22,1,0.32c0.11,0.05,0.22,0.11,0.33,0.16c-0.01,0.02-0.01,0.03-0.02,0.05c-0.45-0.15-0.9-0.29-1.34-0.44
	C17.84,15.22,17.85,15.19,17.86,15.16z M17.79,15.35c0.45,0.15,0.9,0.29,1.35,0.44c-0.01,0.03-0.01,0.06-0.02,0.09
	c-0.45-0.15-0.9-0.29-1.35-0.44C17.78,15.41,17.79,15.38,17.79,15.35z M16.61,11.33c0.32,0.56,0.64,1.12,0.97,1.69
	C17.58,13.01,16.22,12.4,16.61,11.33z M17.35,13.65c-0.26-0.32-0.41-0.5-0.6-0.85c0.28,0.19,0.64,0.37,0.93,0.56
	C17.55,13.44,17.46,13.52,17.35,13.65z M17.75,15.54c0.46,0.15,0.91,0.3,1.37,0.45c0,0.04,0,0.08,0.01,0.12
	c-0.43,0.22-0.85,0.43-1.28,0.65C17.7,16.37,17.66,15.95,17.75,15.54z M17.92,16.94c-0.01-0.03-0.03-0.06-0.04-0.08
	c0.42-0.22,0.84-0.43,1.27-0.65c0.01,0.03,0.02,0.06,0.03,0.09C18.76,16.51,18.34,16.72,17.92,16.94z M18.02,17.12
	c-0.02-0.03-0.03-0.06-0.05-0.09c0.42-0.21,0.84-0.43,1.26-0.64c0.02,0.03,0.04,0.06,0.06,0.09C18.86,16.69,18.44,16.9,18.02,17.12z
	 M19,18c-0.38-0.17-0.7-0.45-0.93-0.79c0.43-0.22,0.85-0.43,1.28-0.65c0.03,0.03,0.06,0.06,0.09,0.08C19.29,17.09,19.15,17.54,19,18
	z M19.19,18.07c-0.03-0.01-0.06-0.02-0.1-0.04c0.15-0.45,0.29-0.9,0.44-1.35c0.03,0.02,0.06,0.03,0.09,0.04
	C19.48,17.18,19.33,17.63,19.19,18.07z M19.37,18.13c-0.03-0.01-0.06-0.02-0.09-0.02c0.15-0.45,0.29-0.9,0.44-1.34
	c0.03,0.01,0.06,0.01,0.09,0.02C19.67,17.23,19.52,17.68,19.37,18.13z M19.47,18.15c0.15-0.46,0.3-0.91,0.44-1.37
	c0.04,0,0.08,0,0.12-0.01c0.22,0.43,0.44,0.85,0.65,1.28C20.3,18.2,19.88,18.24,19.47,18.15z M20.79,18.02
	c-0.22-0.42-0.43-0.84-0.64-1.27c0.03-0.01,0.06-0.02,0.1-0.03c0.21,0.42,0.43,0.84,0.64,1.26C20.85,17.99,20.82,18.01,20.79,18.02z
	 M20.97,17.93c-0.21-0.42-0.43-0.84-0.64-1.26c0.03-0.02,0.05-0.03,0.08-0.05c0.22,0.42,0.43,0.84,0.64,1.27
	C21.02,17.9,21,17.92,20.97,17.93z M21.14,17.83c-0.22-0.43-0.43-0.85-0.65-1.28c0.03-0.03,0.05-0.06,0.08-0.09
	c0.46,0.15,0.91,0.3,1.37,0.45C21.76,17.28,21.48,17.6,21.14,17.83z M21.97,16.81c-0.45-0.15-0.9-0.29-1.35-0.44
	c0.01-0.03,0.03-0.06,0.04-0.08c0.45,0.15,0.9,0.29,1.35,0.44C21.99,16.75,21.98,16.78,21.97,16.81z M22.03,16.63
	c-0.45-0.15-0.9-0.29-1.34-0.44c0.01-0.03,0.02-0.07,0.02-0.1c0.45,0.15,0.9,0.29,1.35,0.44C22.05,16.56,22.04,16.59,22.03,16.63z
	 M22.08,16.43c-0.46-0.15-0.91-0.3-1.37-0.44c0-0.04,0-0.08-0.01-0.12c0.43-0.22,0.85-0.43,1.28-0.65
	C22.13,15.6,22.17,16.02,22.08,16.43z"/>
</svg>
