<?xml version="1.0" encoding="UTF-8"?><svg id="Layer_1" xmlns="http://www.w3.org/2000/svg" viewBox="0 0 88 96"><defs><style>.cls-1{stroke-width:.5px;}.cls-1,.cls-2{stroke:#000;stroke-miterlimit:10;}.cls-2{stroke-width:.25px;}.cls-3{fill:none;}</style></defs><path class="cls-3" d="M48.37,50.99c-.97-.33-1.44-.71-1.08-1.8,.25-.76,.3-1.59,.44-2.39,1.68-9.58,3.37-19.16,5.01-28.75,.16-.93,.02-1.92,.02-2.88-.28,.14-.33,.28-.36,.43-1.44,7.85-2.85,15.7-4.31,23.54-.8,4.32-3.33,7.24-7.44,8.76-.94,.35-1.96,.46-2.93,.74-.22,.06-.52,.31-.55,.51-.13,1.02-.18,2.06-.27,3.25,1.25,0,2.32-.04,3.38,0,1.68,.07,3.4,.02,5.04,.35,3.86,.77,6.39,3.14,7.64,6.87,.06,.19,.3,.33,.45,.49,.13-.18,.38-.37,.37-.53-.08-1.16-.06-2.36-.37-3.46-.74-2.58-2.52-4.28-5.05-5.13Z"/><path class="cls-3" d="M44.77,54.05h.03s-.02,0-.03,0c0,0,0,0,0,0Z"/><path class="cls-3" d="M36.92,54.92c-1.24,.01-2.09,.9-2.03,2.12,.1,2.3,.24,4.61,.37,6.91,0,0,0,0,0,0,.04,.62,.08,1.23,.11,1.85,.27,4.86,.53,9.73,.81,14.59,.07,1.15,1.01,2.06,2.16,2.08,1.35,.02,2.7,.02,4.05,0,1.65-.02,2.39-1.07,2.17-3.04-.2-1.8-.24-3.63,.07-5.41,.42-2.41,.74-2.93-.15-3.48-2.18-1.34-3.43-3.85-3.19-6.4,.23-2.5,1.59-4.27,3.85-5.37,.2-.1,.45-.19,.54-.36,.8-1.44-.38-3.48-2.03-3.5-2.25-.02-4.49-.02-6.74,0Z"/><path class="cls-2" d="M37.28,53.98c-2.33,0-3.53,1.28-3.4,3.63,.1,1.69,.22,3.37,.32,5.06,.34,6,.66,12.01,1.01,18.01,.09,1.5,1.2,2.72,2.64,2.79,1.66,.08,3.32,.08,4.98,.01,1.48-.06,2.63-1.23,2.72-2.7,.2-3.18,.39-6.36,.51-9.54,.02-.41-.33-1.03-.69-1.23-1.48-.81-2.78-1.96-3.03-3.63-.51-3.43,.81-5.68,3.58-6.84,.33-.14,.72-.55,.75-.87,.16-1.8,.31-3.48-1.81-4.52,0,0-.18-.06-.24-.06-2.35-.22-5.22-.13-7.34-.12Zm8.4,4.48c-.09,.17-.35,.26-.54,.36-2.26,1.1-3.62,2.87-3.85,5.37-.24,2.55,1.02,5.05,3.19,6.4,.89,.55,.57,1.07,.15,3.48-.31,1.79-.26,3.61-.07,5.41,.22,1.97-.52,3.02-2.17,3.04-1.35,.02-2.7,.01-4.05,0-1.15-.01-2.1-.93-2.16-2.08-.28-4.86-.54-9.73-.81-14.59-.03-.62-.08-1.23-.11-1.85,0,0,0,0,0,0-.12-2.3-.26-4.61-.37-6.91-.05-1.23,.79-2.11,2.03-2.12,2.25-.03,4.49-.03,6.74,0,1.65,.02,2.82,2.06,2.03,3.5Z"/><path class="cls-2" d="M54.69,59.14c0-4.34-1.94-7.39-6.05-8.93-.61-.23-.59-.59-.5-1.06,1.14-6.45,2.29-12.91,3.42-19.36,.73-4.19,1.47-8.37,2.13-12.57,.27-1.7-.23-3.23-1.5-4.66-.08,.32-.13,.47-.15,.62-.59,3.16-1.18,6.31-1.76,9.47-1.04,5.61-2.06,11.23-3.13,16.84-.33,1.74-.96,3.37-2.39,4.55-.39,.35-.79,.71-1.18,1.06-1.01,.66-1.96,1.46-3.04,1.93-1.05,.46-2.26,.55-3.39,.86-.28,.08-.7,.34-.73,.56-.19,1.54-.29,3.09-.43,4.82,2.85,0,8.85,.3,8.62,.3,0,0,.46,.09,.47,.09l-.2-.05c.68,.19,6.31,3.03,7.38,6.46,.1,.33,.44,.78,.73,.83,.54,.1,1.13-.05,1.67-.09,.04-.18,.07-.25,.07-.31,0-.46-.01-.91-.02-1.37Zm-1.27,.97c-.15-.16-.39-.3-.45-.49-1.25-3.73-3.78-6.11-7.64-6.87-1.64-.33-3.36-.27-5.04-.35-1.07-.05-2.14,0-3.38,0,.09-1.2,.14-2.23,.27-3.25,.02-.19,.33-.45,.55-.51,.97-.27,1.99-.39,2.93-.74,4.11-1.52,6.64-4.44,7.44-8.76,1.46-7.84,2.88-15.69,4.31-23.54,.03-.15,.08-.29,.36-.43,0,.96,.14,1.95-.02,2.88-1.64,9.59-3.33,19.17-5.01,28.75-.14,.8-.19,1.63-.44,2.39-.36,1.09,.11,1.48,1.08,1.8,2.53,.85,4.32,2.55,5.05,5.13,.31,1.1,.29,2.3,.37,3.46,.01,.17-.24,.36-.37,.53Z"/><path class="cls-2" d="M44.74,43.49c-.39,.35-.79,.71-1.18,1.06-1.81,1.35-3.88,2.06-6.08,2.48-.82,.16-1.12-.05-1.09-.91,.25-6.59,.48-13.18,.7-19.77,.16-4.58,.3-9.16,.45-13.73,.08-2.44,.15-4.87,.21-7.31,.01-.53,.08-1,.76-1.01,1.78,0,3.57,0,5.43,0,.07,1.89,.16,3.69,.21,5.5,.26,10.59,.51,21.18,.75,31.76,.01,.64-.1,1.28-.16,1.92Zm-7.48,2.65c2.4-.32,4.42-1.06,6.11-2.62,.49-.45,.7-.93,.69-1.61-.25-9.98-.47-19.95-.68-29.93-.05-2.26,0-4.53,0-6.83h-4.76c-.45,13.66-.9,27.28-1.35,40.99Z"/><path d="M46.15,60.25c-.15,2.99-.31,5.97-.46,8.95-1.68-.4-2.91-2.4-2.86-4.59,.05-2.03,1.53-4.02,3.32-4.36Z"/><path class="cls-1" d="M40.31,89.13c.37,0,.99,0,.99,0,0,0,.04,.26,.04,.35,.14,2.52-1.11,4.18-3.22,4.43-1.54,.18-2.65-.65-3.59-1.7-1.16-1.31-2.02-3.16-2.13-4.92-.01-.2,.09-.54,.32-.72,.42-.31,.67,.29,.73,.55,.47,2.06,.86,2.67,1.61,3.97,.3,.52,1.07,1.18,1.62,1.45,1.57,.78,3.12-.09,3.41-1.82,.08-.51,.14-1.02,.22-1.59Z"/><path class="cls-2" d="M54.36,61.99c0,1.6,0,3.11,0,4.63,0,.65,.05,1.31-.04,1.95-.03,.23-.39,.42-.6,.62-.17-.21-.47-.41-.48-.63-.13-1.98-.26-3.96-.29-5.94-.01-.87,.75-.52,1.41-.63Z"/><path class="cls-1" d="M39.46,84.42h2.5c-.08,1.07-.08,2.1-.27,3.09-.06,.29-.67,.7-.98,.66-.37-.05-.88-.48-.96-.83-.2-.91-.2-1.86-.29-2.92Z"/><path class="cls-2" d="M38.37,3.56c.38-1.29,1.34-2.03,2.51-2.03,1.19,0,2.17,.74,2.52,2.03-.86,0-1.68,0-2.51,0s-1.63,0-2.52,0Z"/><path d="M42.23,50.09c0,.84-.72,1.55-1.55,1.56-.83,0-1.55-.72-1.55-1.55,0-.87,.67-1.52,1.55-1.52,.88,0,1.56,.66,1.55,1.52Zm-1.56-1.02c-.34,.49-.71,.8-.66,1,.07,.28,.44,.61,.73,.66,.17,.03,.62-.41,.62-.64,0-.28-.35-.55-.69-1.03Z"/></svg>