<?xml version="1.0" encoding="UTF-8"?><svg id="Layer_1" xmlns="http://www.w3.org/2000/svg" viewBox="0 0 88 96"><defs><style>.cls-1{fill:#fff;}.cls-2{fill:none;}</style></defs><g><path class="cls-2" d="M46.1,43.59c.31-.2,.56-.34,.79-.52,7.71-6.23,15.42-12.47,23.13-18.7,.38-.31,.71-.65,.38-1.11-.35-.48-.78-.24-1.15,.08-.09,.08-.19,.15-.29,.23-6.96,5.63-13.92,11.26-20.89,16.89-.75,.6-1.52,1.19-2.23,1.83-.19,.17-.28,.55-.27,.83,0,.15,.31,.3,.52,.47Z"/><path class="cls-2" d="M44.89,84.37c1.31-2.23,2.61-4.42,3.92-6.65-1.5-1.1-3.05-1.74-4.83-.89-1.44,.68-2.2,1.89-2.21,3.47-.01,2.09,1.31,3.23,3.13,4.07Z"/><path class="cls-2" d="M46.87,83.44c.7,.42,1.37,.84,2.05,1.21,.15,.08,.39,0,.59,0-.08-.18-.12-.43-.26-.52-.65-.42-1.34-.8-2.04-1.21-.12,.19-.22,.35-.34,.53Z"/><path class="cls-2" d="M50.69,81.65c.15,.08,.4,0,.6-.02-.1-.17-.15-.41-.3-.51-.66-.42-1.34-.8-2.03-1.21-.12,.2-.21,.34-.33,.54,.74,.44,1.39,.84,2.06,1.2Z"/><path class="cls-2" d="M60.4,14.13c-.22,.13-.36,.39-.53,.61-5.07,6.59-10.13,13.18-15.2,19.77-.98,1.27-1.98,2.53-2.91,3.83-.15,.21-.12,.75,.04,.95,.29,.36,.66,.14,.93-.17,.06-.07,.12-.15,.19-.23,6.06-7.88,12.12-15.76,18.17-23.65,.15-.19,.25-.41,.41-.66-.13-.2-.22-.48-.37-.52-.23-.07-.54-.04-.74,.07Z"/><path class="cls-2" d="M43.47,49.22c-2.81,2.29-5.63,4.57-8.45,6.83-.59,.47-.6,.99-.29,1.72,3.52-2.85,6.99-5.65,10.5-8.49-.66-.51-1.19-.52-1.76-.06Z"/><path class="cls-2" d="M26.3,61.11c-.13-.18-.22-.29-.3-.41-1.13-1.66-3.02-2.24-4.71-1.39-1.54,.78-2.55,2.55-1.83,4.64,.72,2.1,3.68,3.17,5.36,1.84,3.06-2.42,6.08-4.89,9.1-7.36,.15-.13,.26-.48,.2-.66-.32-.95-.07-1.65,.71-2.27,2.76-2.2,5.51-4.42,8.24-6.65,.73-.59,1.46-.71,2.23-.2,.34,.22,.56,.14,.84-.09,.76-.63,1.53-1.25,2.3-1.87,7.97-6.44,15.93-12.88,23.9-19.33,1.28-1.03,1.5-2.53,.55-3.92-15.52,12.55-31.04,25.1-46.59,37.67Z"/><path class="cls-2" d="M25.49,57.72c10.26-13.37,20.53-26.73,30.8-40.09,1.55-2.01,3.09-4.03,4.68-6.08-1.86-.85-2.97-.58-4.15,.96-10.27,13.36-20.54,26.72-30.82,40.08-1.33,1.73-2.66,3.47-3.98,5.19,.79,.11,1.58,.09,2.27,.34,.61,.22,.85,.05,1.19-.4Z"/><path class="cls-2" d="M17.02,65.57c-.11,.11-.17,.43-.09,.54,.46,.62,.97,1.21,1.49,1.85,.56-.51,1.01-.92,1.52-1.38-.61-.73-1.16-1.38-1.75-2.08-.41,.37-.82,.7-1.17,1.07Z"/><path d="M77.42,18.32c-.56,.44-1.13,.89-1.7,1.33-1.24-1.64-2.23-1.75-3.82-.46-8.98,7.26-17.97,14.53-26.95,21.79-1.6,1.29-1.71,2.27-.35,3.86-7.34,5.93-14.67,11.87-22.03,17.82-.27-.28-.46-.49-.7-.74,5.81-7.56,11.6-15.08,17.39-22.62,1.38,1.33,2.52,1.26,3.61-.16,7.12-9.25,14.23-18.5,21.33-27.75,1.23-1.61,1.09-2.54-.56-3.79,.44-.6,.89-1.2,1.45-1.97-1.05-.5-2.01-.95-2.96-1.4h-1.92c-1.18,.41-2.11,1.11-2.88,2.12-9.74,12.7-19.49,25.39-29.25,38.07-4.74,6.16-9.49,12.3-14.24,18.45-.75,.97-1.2,2.06-1.14,3.31,.04,.66,0,1.18-.69,1.59-.64,.38-1.19,.94-1.68,1.51-.21,.25-.37,.8-.24,1.05,.36,.68,.18,1.12-.35,1.56-.24,.2-.45,.45-.66,.7-1.39,1.7-2.31,3.55-2.01,5.83,.28,2.14,1.52,3.71,2.97,5.2,1.49,1.52,3.32,2.14,5.33,1.75,2.15-.42,4.28-1.06,6.34-1.81,3.19-1.16,6.28-2.58,9.47-3.74,4.14-1.5,7.35,1.17,8.49,3.71,.17,.39,.19,.97,.03,1.36-.55,1.42-.58,2.82-.09,4.26,.83,2.46,3.02,3.36,5.04,4.53,.43-.7,.82-1.33,1.23-2,.93,.55,1.77,1.08,2.64,1.52,.36,.18,.9,.34,1.22,.2,.42-.19,.83-.63,1-1.07,.24-.63-.11-1.19-.68-1.55-.88-.55-1.77-1.07-2.71-1.63,.23-.37,.4-.66,.61-1.01,.9,.53,1.7,1.04,2.55,1.47,.37,.19,.89,.41,1.21,.28,.45-.19,.92-.63,1.11-1.07,.26-.62-.09-1.19-.66-1.55-.88-.55-1.78-1.07-2.73-1.64,.4-.7,.77-1.34,1.14-1.98-3.25-2.22-5.65-3.59-9.5-.79-.15-.25-.29-.49-.44-.73-1.79-3.01-5.5-5.15-9.59-3.82-1.98,.65-3.91,1.45-5.87,2.19-2.77,1.04-5.49,2.21-8.31,3.1-2.5,.8-4.81,.42-6.57-1.85-1.56-2.01-2.52-4.1-1.14-6.56,.58-1.02,1.35-1.93,2.07-2.94,.36,.35,.59,.57,.82,.78,.83,.75,1.19,.75,2.01,.03,.44-.39,.91-.74,1.28-1.18,.38-.45,.74-.48,1.27-.28,1.89,.68,3.58,.38,5.2-.93,16.63-13.49,33.3-26.95,49.95-40.41,2.06-1.66,4.17-3.28,6.13-5.05,1.9-1.72,1.58-5.37-.48-6.87Zm-28.05,73.29c.17,.11,.21,.4,.31,.61-.23,0-.52,.11-.69,.01-.81-.44-1.59-.93-2.42-1.42,.14-.22,.26-.4,.4-.63,.83,.49,1.64,.93,2.41,1.43Zm2.05-3.54c.17,.11,.24,.4,.35,.6-.24,.01-.53,.12-.71,.02-.79-.42-1.56-.9-2.43-1.42,.14-.23,.25-.4,.39-.63,.82,.48,1.62,.93,2.4,1.42Zm-8.27-5.06c2.1-.99,3.92-.25,5.69,1.05-1.54,2.62-3.07,5.21-4.62,7.83-2.14-.99-3.7-2.34-3.68-4.79,.01-1.87,.91-3.29,2.61-4.09Zm2.21-40.71c.84-.76,1.74-1.45,2.63-2.16,8.21-6.64,16.41-13.27,24.62-19.91,.11-.09,.23-.18,.34-.27,.43-.37,.94-.66,1.35-.09,.39,.54,0,.95-.45,1.31-9.09,7.34-18.18,14.69-27.27,22.04-.26,.21-.57,.38-.93,.61-.24-.21-.61-.37-.61-.56-.01-.33,.09-.77,.32-.97ZM63.83,9.65c-.18,.3-.31,.56-.48,.78-7.14,9.29-14.28,18.58-21.42,27.87-.07,.09-.14,.18-.22,.27-.32,.37-.76,.63-1.1,.2-.2-.24-.23-.87-.05-1.12,1.1-1.54,2.27-3.02,3.43-4.52,5.97-7.77,11.94-15.54,17.92-23.3,.19-.25,.36-.57,.62-.72,.24-.14,.61-.17,.88-.08,.18,.05,.28,.38,.44,.62ZM21.98,54.45c12.11-15.75,24.21-31.5,36.32-47.25,1.39-1.81,2.69-2.14,4.89-1.13-1.86,2.43-3.69,4.8-5.51,7.17-12.11,15.75-24.21,31.5-36.31,47.26-.4,.53-.69,.72-1.41,.47-.82-.29-1.74-.28-2.67-.4,1.55-2.03,3.12-4.07,4.69-6.12Zm-8.94,18.12c-.61-.75-1.21-1.45-1.75-2.18-.09-.13-.02-.5,.1-.63,.41-.44,.89-.82,1.38-1.26,.69,.82,1.34,1.6,2.06,2.45-.59,.54-1.12,1.02-1.79,1.63Zm19.22-12.01c-.37-.85-.35-1.47,.35-2.02,3.33-2.67,6.65-5.36,9.96-8.05,.67-.55,1.29-.53,2.07,.07-4.14,3.35-8.23,6.65-12.38,10.01ZM76.58,24.71c-9.39,7.6-18.78,15.19-28.17,22.78-.9,.73-1.82,1.45-2.71,2.2-.33,.27-.58,.37-.99,.1-.92-.6-1.78-.46-2.63,.24-3.22,2.63-6.46,5.25-9.72,7.84-.92,.73-1.21,1.56-.84,2.67,.07,.22-.06,.63-.24,.78-3.56,2.91-7.12,5.82-10.72,8.68-1.98,1.57-5.46,.31-6.31-2.17-.84-2.46,.34-4.55,2.16-5.46,2-1.01,4.22-.32,5.55,1.64,.1,.14,.2,.27,.36,.48,18.32-14.82,36.62-29.61,54.91-44.4,1.11,1.64,.85,3.41-.65,4.63Z"/></g><path class="cls-1" d="M44.89,84.37c-1.82-.84-3.14-1.98-3.13-4.07,.01-1.59,.77-2.79,2.21-3.47,1.78-.84,3.33-.21,4.83,.89-1.31,2.22-2.6,4.42-3.92,6.65Z"/><path class="cls-1" d="M46.87,83.44c.12-.18,.22-.34,.34-.53,.71,.41,1.39,.79,2.04,1.21,.14,.09,.18,.34,.26,.52-.2,0-.44,.09-.59,0-.69-.37-1.35-.79-2.05-1.21Z"/><path class="cls-1" d="M48.63,80.45c.12-.2,.21-.34,.33-.54,.69,.41,1.38,.79,2.03,1.21,.15,.09,.2,.34,.3,.51-.2,.01-.45,.1-.6,.02-.67-.36-1.32-.76-2.06-1.2Z"/></svg>