<?xml version="1.0" encoding="utf-8"?>
<!-- Generator: Adobe Illustrator 24.1.0, SVG Export Plug-In . SVG Version: 6.00 Build 0)  -->
<svg version="1.1" id="Layer_1" xmlns="http://www.w3.org/2000/svg" xmlns:xlink="http://www.w3.org/1999/xlink" x="0px" y="0px"
	 viewBox="0 0 24 24" style="enable-background:new 0 0 24 24;" xml:space="preserve">
<style type="text/css">
	.st0{fill:#404040;}
</style>
<g>
	<g>
		<g>
			<g>
				<path class="st0" d="M15.05,8.67l-0.49-0.06l0.26-2.12c0.01-0.12-0.07-0.23-0.19-0.24l-0.55-0.07
					c-0.12-0.01-0.22,0.07-0.24,0.19L13.59,8.5l-1.77-0.21l0.26-2.13c0.01-0.12-0.07-0.22-0.19-0.24l-0.55-0.06
					c-0.12-0.02-0.22,0.07-0.24,0.18l-0.25,2.13l-0.48-0.05C9.94,8.06,9.55,8.37,9.5,8.8l-0.74,6.19c-0.05,0.42,0.26,0.81,0.69,0.86
					l0.93,0.11l-0.03,0.25c-0.02,0.2,0.12,0.38,0.32,0.41h0.06c0.02,0.47,0.1,1.18,0.14,1.51c0.01,0.11,0.1,0.19,0.2,0.21l0.1,0.01
					l-0.02,0.2l0.69,0.06l0.02-0.18l0.1,0.01c0.11,0.01,0.22-0.05,0.25-0.15c0.12-0.32,0.36-0.99,0.49-1.43l0.06,0.01
					c0.2,0.02,0.38-0.12,0.41-0.32l0.03-0.25l0.93,0.11c0.43,0.05,0.82-0.26,0.87-0.68l0.73-6.19C15.78,9.11,15.48,8.72,15.05,8.67z
					 M11.24,14.43l0.82-1.87l-1.09-0.13l1.07-2l1.04,0.12l-0.84,1.53l1.27,0.15L11.24,14.43z"/>
			</g>
		</g>
	</g>
	<g>
		<path class="st0" d="M21.58,16.5c-0.2-0.14-0.4-0.28-0.6-0.43l-0.21,0.41c-0.26-0.05-0.53,0.08-0.66,0.33l-0.43,0.85
			c-0.06,0.11-0.01,0.24,0.1,0.3L19.83,18l-0.15,0.3c-0.04,0.07-0.01,0.16,0.06,0.2l0.66,0.34c0.07,0.04,0.16,0.01,0.2-0.06
			l0.15-0.3l0.06,0.03c0.11,0.06,0.24,0.01,0.3-0.1l0.43-0.85c0.13-0.25,0.07-0.54-0.12-0.73L21.58,16.5z"/>
	</g>
	<g>
		<path class="st0" d="M7.99,21.96c-2.79,0-5.87-2.88-6.41-8.42C1.01,7.79,5.23,2.66,10.98,2.09c5.75-0.56,10.88,3.65,11.45,9.4
			c0.18,1.87-0.16,3.75-0.99,5.43l-0.78-0.39c0.76-1.53,1.07-3.25,0.9-4.96c-0.52-5.27-5.22-9.14-10.49-8.62
			C5.79,3.48,1.93,8.19,2.45,13.46c0.49,5.02,3.15,7.63,5.54,7.63c0.02,0,0.03,0,0.05,0c1.76-0.03,3-1.5,3.15-3.77l0.87,0.06
			c-0.19,2.75-1.76,4.54-4.01,4.58C8.03,21.96,8.01,21.96,7.99,21.96z"/>
	</g>
</g>
</svg>
