<?xml version="1.0" encoding="UTF-8"?><svg id="Layer_1" xmlns="http://www.w3.org/2000/svg" viewBox="0 0 72.13 92.78"><defs><style>.cls-1{fill:none;stroke:#000;stroke-miterlimit:10;stroke-width:2px;}</style></defs><path class="cls-1" d="M36.97,4.37c.56,.15,2.31,1.45,2.61,1.54,1.16,.35,1.56-.24,3-.17,1.36,.07,2.66,.57,3.99,.86,3.44,.74,6.08,2.69,8.28,5.35,3.33,4.02,5.12,8.69,5.87,13.81,.45,3.07,.35,6.1-.61,9.07-.56,1.74-1.64,3.42-2.76,4.23,.22-1.75,.12-3.44-.38-5.09-.68-2.26-1.96-4.17-3.53-5.9-2.59-2.87-5.77-4.9-9.27-6.62-.4,.75-.78,1.47-1.18,2.18-2.14,3.86-4.9,7.12-8.92,9.13-2.3,1.15-4.81,1.55-7.3,1.97-1.71,.29-3.43,.51-5.15,.77-1.42,.22-2.36,1.5-2.55,3.34-.27,2.61,.37,5.04,1.46,7.36,.91,1.93,1.77,3.73,2.73,5.64,.12,.21,.3,.63,.43,.98-.74-.55-1.61-1.18-2.31-1.78-4.23-3.67-6.62-8.33-7.24-13.86-.77-6.85-.12-13.56,2.57-19.97,1.78-4.26,4.41-7.89,8.42-10.35,1.75-1.08,2.97-2.03,4.97-2.49,.14-.03,1.03-.24,1.17-.27,2.99-.61,4.29-.12,5.68,.26Z"/><path class="cls-1" d="M64.91,65.83c-.19,1.42-.55,2.85-1.15,4.13-.53,1.12-1.1,2.17-1.87,3.09-2.06,2.47-3.48,5.17-3.78,8.42-.19,2.13,.06,3.33,1.54,6.08-.69-.09-1.3-.09-1.87-.25-4.83-1.35-7.76-4.76-9.86-9.09-2.46-5.08-3.17-10.47-2.84-16.04,.02-.26,.17-.6,.37-.76,4.09-3.12,6.59-7.36,8.56-11.99,.27-.64,.5-1.07,.79-1.69,.03-.06,.3-.6,.42-.81,1.67,1.82,3.17,4.01,4.81,5.83,1.67,1.86,3.08,3.91,3.91,6.29,.4,1.14,.8,2.3,.95,3.5,.14,1.09,.14,2.2,0,3.29Z"/></svg>