<?xml version="1.0" encoding="utf-8"?>
<!-- Generator: Adobe Illustrator 24.1.0, SVG Export Plug-In . SVG Version: 6.00 Build 0)  -->
<svg version="1.1" id="Layer_1" xmlns="http://www.w3.org/2000/svg" xmlns:xlink="http://www.w3.org/1999/xlink" x="0px" y="0px"
	 viewBox="0 0 24 24" style="enable-background:new 0 0 24 24;" xml:space="preserve">
<style type="text/css">
	.st0{fill:none;stroke:#404040;stroke-width:0.6;stroke-linecap:round;stroke-linejoin:round;stroke-miterlimit:10;}
</style>
<g>
	<path class="st0" d="M10.6,5.2h7.9c0.8,0,1.5,0.7,1.5,1.5v15c0,0.8-0.7,1.5-1.5,1.5h-7.9c-0.8,0-1.5-0.7-1.5-1.5v-15
		C9.1,5.9,9.8,5.2,10.6,5.2z"/>
	<path class="st0" d="M14.5,4.1v-1c0-1.3-1-2.3-2.3-2.3H7.6c-1.3,0-2.3,1-2.3,2.3v7.6"/>
	<polygon class="st0" points="17.3,10.7 13.1,16.2 15,16.2 13.7,21 18.4,15.1 16.1,15.1 	"/>
	<circle class="st0" cx="11.2" cy="7.4" r="0.6"/>
	<circle class="st0" cx="11.2" cy="9.5" r="0.6"/>
	<circle class="st0" cx="11.2" cy="11.6" r="0.6"/>
	<circle class="st0" cx="11.2" cy="13.6" r="0.6"/>
	<circle class="st0" cx="17.4" cy="7.6" r="0.9"/>
	<path class="st0" d="M13.4,5.2L13.4,5.2c0-0.6,0.5-1.1,1.1-1.1l0,0c0.6,0,1.1,0.5,1.1,1.1v0"/>
	<path class="st0" d="M6.8,13.7H4v-2.6c0-0.2,0.2-0.4,0.4-0.4h2c0.2,0,0.4,0.2,0.4,0.4C6.8,11.1,6.8,13.7,6.8,13.7z"/>
	<polyline class="st0" points="4.8,13.7 4.8,14.8 6,14.8 6,13.7 	"/>
</g>
</svg>
