<?xml version="1.0" encoding="UTF-8"?>
<svg width="24px" height="24px" viewBox="0 0 24 24" version="1.1" xmlns="http://www.w3.org/2000/svg" xmlns:xlink="http://www.w3.org/1999/xlink">
    <!-- Generator: Sketch 61.2 (89653) - https://sketch.com -->
    <title>airConditioner</title>
    <desc>Created with Sketch.</desc>
    <g id="airConditioner" stroke="none" stroke-width="1" fill="none" fill-rule="evenodd">
        <g id="icon" transform="translate(0.000000, 6.000000)">
            <path d="M2,5.5 C1.17157288,5.5 0.5,6.17157288 0.5,7 L0.5,10 C0.5,10.8284271 1.17157288,11.5 2,11.5 L22,11.5 C22.8284271,11.5 23.5,10.8284271 23.5,10 L23.5,7 C23.5,6.17157288 22.8284271,5.5 22,5.5 L2,5.5 Z" id="Rectangle" stroke="#404040" fill="#FFFFFF"></path>
            <rect id="Rectangle" fill="#404040" x="4" y="9" width="4" height="1"></rect>
            <rect id="Rectangle" fill="#404040" x="2" y="9" width="1" height="1"></rect>
            <path d="M2,0.5 C1.17157288,0.5 0.5,1.17157288 0.5,2 L0.5,6 C0.5,6.82842712 1.17157288,7.5 2,7.5 L22,7.5 C22.8284271,7.5 23.5,6.82842712 23.5,6 L23.5,2 C23.5,1.17157288 22.8284271,0.5 22,0.5 L2,0.5 Z" id="Rectangle" stroke="#404040" fill="#FFFFFF"></path>
        </g>
    </g>
</svg>