<?xml version="1.0" encoding="utf-8"?>
<!-- Generator: Adobe Illustrator 24.1.0, SVG Export Plug-In . SVG Version: 6.00 Build 0)  -->
<svg version="1.1" id="Layer_1" xmlns="http://www.w3.org/2000/svg" xmlns:xlink="http://www.w3.org/1999/xlink" x="0px" y="0px"
	 viewBox="0 0 24 24" style="enable-background:new 0 0 24 24;" xml:space="preserve">
<style type="text/css">
	.st0{fill:#231F20;}
	.st1{fill:none;stroke:#231F20;stroke-width:0.75;stroke-miterlimit:10;}
	.st2{fill:#FFFFFF;}
</style>
<g>
	<ellipse class="st0" cx="12.03" cy="5.94" rx="0.97" ry="0.93"/>
	<path class="st0" d="M12.17,13.52c-1.56,0-2.83,1.22-2.83,2.73c0,1.51,1.27,2.73,2.83,2.73c1.56,0,2.83-1.22,2.83-2.73
		C15,14.75,13.73,13.52,12.17,13.52z M12.2,17.58c-0.72,0-1.31-0.56-1.31-1.26c0-0.7,0.59-1.26,1.31-1.26s1.31,0.56,1.31,1.26
		C13.51,17.01,12.92,17.58,12.2,17.58z"/>
	<path class="st1" d="M19.03,1H5.21C4.63,1,4.15,1.47,4.15,2.05v20.11c0,0.58,0.48,1.05,1.06,1.05h13.82c0.58,0,1.06-0.47,1.06-1.05
		V2.05C20.1,1.47,19.62,1,19.03,1z M11.95,2.84c1.71,0,3.1,1.37,3.1,3.06s-1.39,3.06-3.1,3.06c-1.71,0-3.1-1.37-3.1-3.06
		S10.23,2.84,11.95,2.84z M12.12,21.9c-3.43,0-6.2-2.58-6.2-5.77s2.78-5.77,6.2-5.77s6.2,2.58,6.2,5.77S15.55,21.9,12.12,21.9z"/>
	<rect x="6.5" y="2.5" class="st2" width="13" height="7"/>
	<g>
		<path class="st0" d="M11.71,5.68c-0.06,0-0.11-0.05-0.11-0.11v-3.4c0-0.04,0.02-0.08,0.06-0.1c0.04-0.02,0.08-0.01,0.12,0.01
			l2.18,1.7c0.05,0.04,0.06,0.11,0.02,0.15c-0.04,0.05-0.11,0.06-0.15,0.02l-2-1.56v3.18C11.82,5.63,11.77,5.68,11.71,5.68z"/>
		<path class="st0" d="M10.11,6.94c-0.03,0-0.06-0.01-0.09-0.04c-0.04-0.05-0.03-0.12,0.02-0.15l3.78-2.96
			c0.05-0.04,0.12-0.03,0.15,0.02c0.04,0.05,0.03,0.12-0.02,0.15l-3.78,2.96C10.16,6.93,10.13,6.94,10.11,6.94z"/>
		<path class="st0" d="M13.89,7.38c-0.02,0-0.05-0.01-0.07-0.02L10.04,4.4C9.99,4.37,9.99,4.3,10.02,4.25
			c0.04-0.05,0.11-0.06,0.15-0.02l3.78,2.96c0.05,0.04,0.06,0.11,0.02,0.15C13.96,7.37,13.92,7.38,13.89,7.38z"/>
		<path class="st0" d="M11.71,9.08c-0.02,0-0.03,0-0.05-0.01c-0.04-0.02-0.06-0.06-0.06-0.1v-3.4c0-0.06,0.05-0.11,0.11-0.11
			s0.11,0.05,0.11,0.11v3.18l2-1.56c0.05-0.04,0.12-0.03,0.15,0.02c0.04,0.05,0.03,0.12-0.02,0.15l-2.18,1.7
			C11.76,9.08,11.74,9.08,11.71,9.08z"/>
	</g>
</g>
</svg>
