<?xml version="1.0" encoding="utf-8"?>
<!-- Generator: Adobe Illustrator 24.1.0, SVG Export Plug-In . SVG Version: 6.00 Build 0)  -->
<svg version="1.1" id="Layer_1" xmlns="http://www.w3.org/2000/svg" xmlns:xlink="http://www.w3.org/1999/xlink" x="0px" y="0px"
	 viewBox="0 0 24 24" style="enable-background:new 0 0 24 24;" xml:space="preserve">
<style type="text/css">
	.st0{fill:none;stroke:#404040;stroke-width:0.5;stroke-miterlimit:10;}
	.st1{fill:none;stroke:#404040;stroke-width:0.25;stroke-miterlimit:10;}
	.st2{fill:#404040;}
</style>
<g>
	<path class="st0" d="M10.5,19.6v-0.5C9.8,19,9,18.8,8.4,18.5l-0.2,0.4C8.9,19.3,9.7,19.5,10.5,19.6z"/>
	<path class="st0" d="M13.5,19.2v0.5c0.8-0.1,1.6-0.4,2.3-0.8l-0.2-0.4C15,18.8,14.3,19,13.5,19.2z"/>
	<path class="st0" d="M3.3,11.8c0.1,1.2,0.4,2.3,1,3.4L4.7,15c-0.5-0.9-0.8-2-0.9-3.1C3.8,11.8,3.3,11.8,3.3,11.8z"/>
	<path class="st0" d="M19.7,15.1c0.5-1.1,0.9-2.2,1-3.4h-0.5c-0.1,1.1-0.4,2.2-0.9,3.2L19.7,15.1z"/>
	<path class="st0" d="M7.3,4.3L7.1,3.9c-1,0.7-1.8,1.6-2.5,2.6L5,6.8C5.6,5.8,6.4,5,7.3,4.3z"/>
	<path class="st0" d="M18.9,6.7l0.4-0.2c-0.7-1-1.5-1.9-2.5-2.6l-0.2,0.4C17.5,4.9,18.3,5.7,18.9,6.7z"/>
	<path class="st0" d="M4.2,7.4c-0.5,1.1-0.8,2.2-0.8,3.4h0.5c0-1.1,0.3-2.2,0.8-3.2L4.2,7.4z"/>
	<path class="st0" d="M18.4,17c0.3-0.3,0.5-0.6,0.8-1l-0.4-0.2c-0.6,0.9-1.4,1.7-2.3,2.3l0.2,0.4C17.3,18,17.9,17.5,18.4,17z"/>
	<path class="st0" d="M11.4,2.4c-1.3,0.1-2.4,0.4-3.5,1l0.2,0.4c1-0.5,2.1-0.9,3.3-0.9V2.4z"/>
	<path class="st0" d="M20.7,10.8c0-1.3-0.4-2.4-0.9-3.5l-0.4,0.2c0.5,1,0.8,2.1,0.8,3.3H20.7z"/>
	<path class="st0" d="M15.9,3.4c-1.1-0.5-2.3-0.9-3.5-0.9V3c1.2,0.1,2.3,0.4,3.3,0.9L15.9,3.4z"/>
	<path class="st0" d="M5.2,15.8L4.8,16c0.2,0.3,0.5,0.7,0.8,1c0.5,0.6,1.1,1,1.7,1.5L7.5,18C6.6,17.4,5.8,16.7,5.2,15.8z"/>
	<path class="st1" d="M12.5,18.2v4.2c0,0.3-0.2,0.5-0.5,0.5s-0.5-0.2-0.5-0.5v-4.2"/>
	<path class="st2" d="M22,10.8c0-1.5-0.4-2.9-1.1-4.1c-0.1-0.3-0.3-0.6-0.5-0.8c-0.8-1.2-1.8-2.3-3-3.1c-0.3-0.2-0.5-0.3-0.8-0.5
		c-1.3-0.6-2.7-1-4.2-1.1c-0.1,0-0.3,0-0.4,0c-0.2,0-0.4,0-0.6,0c-1.5,0-2.9,0.4-4.1,1.1C7,2.4,6.7,2.6,6.5,2.8
		c-1.2,0.8-2.2,1.9-3,3.1C3.3,6.2,3.2,6.4,3,6.7C2.4,8,2,9.4,2,10.8c0,0.1,0,0.2,0,0.3c0,0.2,0,0.5,0,0.7c0.1,1.4,0.5,2.8,1.2,4
		c0.2,0.3,0.3,0.6,0.5,0.8c0.8,1.2,1.8,2.1,3,2.9C7,19.7,7.3,19.8,7.5,20c0.9,0.5,1.9,0.8,3,1v-0.5c-1-0.2-1.9-0.5-2.8-0.9
		c-0.3-0.1-0.6-0.3-0.8-0.5c-1.1-0.7-2.1-1.6-2.8-2.7c-0.2-0.3-0.3-0.5-0.5-0.8c-0.6-1.1-1-2.4-1.1-3.8c0-0.2,0-0.5,0-0.7
		c0-0.1,0-0.2,0-0.3c0-1.4,0.4-2.7,1-3.9C3.6,6.6,3.8,6.3,4,6.1c0.7-1.2,1.7-2.2,2.8-2.9C7,3,7.2,2.8,7.5,2.7c1.2-0.6,2.5-1,3.9-1.1
		c0.2,0,0.4,0,0.6,0c0.1,0,0.3,0,0.4,0c1.4,0.1,2.8,0.4,4,1c0.3,0.2,0.6,0.3,0.8,0.5c1.1,0.8,2.1,1.7,2.9,2.9
		c0.2,0.3,0.3,0.6,0.5,0.8c0.6,1.2,1,2.5,1,3.9c0,0.1,0,0.2,0,0.4s0,0.4,0,0.6c-0.1,1.4-0.5,2.7-1.1,3.9c-0.1,0.3-0.3,0.6-0.5,0.8
		c-0.7,1.1-1.7,2-2.8,2.8c-0.3,0.2-0.5,0.3-0.8,0.5c-0.9,0.4-1.8,0.7-2.8,0.9V21c1.1-0.2,2.1-0.5,3-1c0.3-0.1,0.6-0.3,0.8-0.5
		c1.2-0.8,2.2-1.8,3-2.9c0.2-0.3,0.3-0.5,0.5-0.8c0.6-1.2,1.1-2.6,1.1-4.1c0-0.2,0-0.4,0-0.6C22,11,22,10.9,22,10.8z"/>
</g>
<polygon class="st2" points="10.9,16.3 11.7,12.1 9.6,12.2 11.3,7 13.4,7 12.2,10.4 14.7,10.4 "/>
<path class="st2" d="M12,4c-4,0-7.3,3.3-7.3,7.3c0,3.9,3,7,6.8,7.3v-0.3c-1-0.1-1.8-0.3-2.6-0.7c-0.2-0.2-0.5-0.3-0.8-0.5
	c-0.7-0.5-1.4-1.1-1.9-1.8C6,15,5.9,14.7,5.7,14.4c-0.4-0.8-0.7-1.7-0.8-2.6v-1c0-0.9,0.3-1.8,0.6-2.6C5.7,7.9,5.8,7.6,6,7.3
	c0.5-0.8,1.1-1.5,1.9-2c0.3-0.2,0.5-0.4,0.8-0.4c0.8-0.5,1.7-0.7,2.7-0.8h1c0.9,0,1.9,0.3,2.7,0.7c0.2,0.2,0.5,0.3,0.8,0.5
	c0.8,0.5,1.5,1.2,2,2c0.2,0.2,0.4,0.5,0.5,0.8c0.4,0.8,0.7,1.7,0.7,2.7v1c-0.1,0.9-0.4,1.8-0.8,2.6c-0.1,0.3-0.3,0.5-0.5,0.8
	c-0.5,0.7-1.2,1.3-1.9,1.8c-0.2,0.2-0.5,0.4-0.8,0.5c-0.8,0.4-1.7,0.6-2.6,0.7v0.3c3.8-0.3,6.8-3.4,6.8-7.3C19.3,7.2,16,4,12,4z"/>
<path class="st2" d="M12,4c-4,0-7.3,3.3-7.3,7.3c0,3.9,3,7.1,6.9,7.3v-0.4c-3.6-0.2-6.5-3.2-6.5-6.9c0-3.8,3.1-6.9,6.9-6.9
	s6.9,3.1,6.9,6.9c0,3.7-2.9,6.7-6.5,6.9v0.4c3.8-0.2,6.9-3.4,6.9-7.3C19.3,7.2,16,4,12,4z"/>
</svg>
