<?xml version="1.0" encoding="utf-8"?>
<!-- Generator: Adobe Illustrator 24.1.0, SVG Export Plug-In . SVG Version: 6.00 Build 0)  -->
<svg version="1.1" id="Layer_1" xmlns="http://www.w3.org/2000/svg" xmlns:xlink="http://www.w3.org/1999/xlink" x="0px" y="0px"
	 viewBox="0 0 24 24" style="enable-background:new 0 0 24 24;" xml:space="preserve">
<style type="text/css">
	.st0{fill-rule:evenodd;clip-rule:evenodd;fill:#FFFFFF;stroke:#404040;stroke-width:0.9406;}
	.st1{fill-rule:evenodd;clip-rule:evenodd;fill:#404040;}
	.st2{fill-rule:evenodd;clip-rule:evenodd;fill:#FFFFFF;stroke:#404040;stroke-width:0.5824;}
</style>
<g id="refrigerator">
	<g id="icon" transform="translate(5.000000, 1.000000)">
		<path id="Rectangle" class="st0" d="M-0.1,0.6h10.3c0.5,0,0.9,0.4,0.9,0.9v17.9c0,0.5-0.4,0.9-0.9,0.9H-0.1
			c-0.5,0-0.9-0.4-0.9-0.9V1.5C-1,1-0.6,0.6-0.1,0.6z"/>
		<path id="Combined-Shape" class="st1" d="M6,1v18.8H4.1V1H6z M7.9,7.6v5.6H7V7.6H7.9z M3.2,8.6v3.8H0.4V8.6H3.2z"/>
	</g>
</g>
<g id="airConditioner">
	<g id="icon_2_" transform="translate(0.000000, 6.000000)">
		<path id="Rectangle_5_" class="st2" d="M8.5,13.3c-0.5,0-0.9,0.4-0.9,0.9v1.7c0,0.5,0.4,0.9,0.9,0.9h11.6c0.5,0,0.9-0.4,0.9-0.9
			v-1.7c0-0.5-0.4-0.9-0.9-0.9H8.5z"/>
		<rect id="Rectangle_4_" x="9.6" y="15.3" class="st1" width="2.3" height="0.6"/>
		<rect id="Rectangle_2_" x="8.5" y="15.3" class="st1" width="0.6" height="0.6"/>
		<path id="Rectangle_3_" class="st2" d="M8.5,10.4c-0.5,0-0.9,0.4-0.9,0.9v2.3c0,0.5,0.4,0.9,0.9,0.9h11.6c0.5,0,0.9-0.4,0.9-0.9
			v-2.3c0-0.5-0.4-0.9-0.9-0.9H8.5z"/>
	</g>
</g>
</svg>
